<svg width="62" height="63" viewBox="0 0 62 63" fill="none" xmlns="http://www.w3.org/2000/svg">
<g clip-path="url(#clip0)">
<path d="M7.39097 35.8167C6.85723 36.0711 6.62174 36.7118 6.8596 37.2593L9.29759 42.5773C9.41737 42.8421 9.63589 43.0483 9.90463 43.15C10.0224 43.1934 10.1472 43.2159 10.2728 43.2159C10.4299 43.2172 10.585 43.1831 10.7278 43.1172L29.1479 34.3748L27.4795 52.1007C27.4473 52.4497 27.5796 52.7927 27.8365 53.0258C28.644 53.705 29.6504 54.0919 30.6976 54.1267C30.9863 54.1264 31.2734 54.0895 31.5533 54.0171C33.0487 53.6206 34.2081 52.2666 34.9991 49.9541L42.2479 28.1434L56.6044 21.3387C60.8302 19.3351 63.0079 15.2724 61.5455 12.1014C60.7155 10.444 59.1258 9.31655 57.3088 9.09554C55.2899 8.78592 53.2265 9.10864 51.3928 10.021L34.8254 17.9149L17.0126 10.8353C14.7694 9.97682 12.9927 9.99889 11.7468 10.9129C10.7013 11.7845 10.1065 13.0947 10.132 14.4687C10.1428 14.8173 10.3155 15.1397 10.5979 15.339L22.5923 23.7174L15.7232 27.0204L4.2048 24.0473C3.73281 23.9294 3.24148 24.1456 3.00226 24.5759L0.131306 29.8274C-0.0176541 30.1056 -0.0410669 30.4359 0.067175 30.7331C0.174738 31.0307 0.403437 31.2662 0.69491 31.3799L9.22226 34.9585L7.39097 35.8167ZM12.3528 13.9184C12.4166 13.453 12.6483 13.0292 13.0033 12.7293C13.6212 12.2776 14.748 12.3438 16.2539 12.9161L32.1169 19.203L24.8786 22.6382L12.3528 13.9184ZM2.60153 29.8167L4.48677 26.4146L15.5712 29.2109C15.8101 29.2722 16.0622 29.2491 16.2868 29.1454L52.3141 12.0466C53.7463 11.3287 55.3594 11.0674 56.9406 11.2977C58.0495 11.4015 59.0373 12.0518 59.5846 13.0372C60.4939 15.0194 58.7064 17.9149 55.6831 19.3461L43.201 25.292L43.9598 23.0123C44.1515 22.4258 43.8383 21.792 43.2611 21.5976C42.6832 21.4031 42.0599 21.7214 41.8685 22.3079L32.951 49.271C32.4199 50.8019 31.759 51.7159 31.0223 51.9135C30.5659 52.0028 30.0936 51.9118 29.7003 51.6608L31.8675 28.5392C31.9242 27.9314 31.4855 27.3918 30.8866 27.3342C30.2884 27.2759 29.7573 27.7224 29.7003 28.3303L29.3647 31.8644L10.7709 40.6723L9.24398 37.3693L12.2988 35.9163C12.6921 35.7401 12.9456 35.345 12.9456 34.9089C12.9456 34.4724 12.6921 34.0772 12.2988 33.9014L2.60153 29.8167Z" fill="#7A9DD1"/>
</g>
<defs>
<clipPath id="clip0">
<rect width="62" height="63" fill="white"/>
</clipPath>
</defs>
</svg>
