<svg width="57" height="57" viewBox="0 0 57 57" fill="none" xmlns="http://www.w3.org/2000/svg">
<path d="M56.1651 29.2634H54.9061L49.708 17.2617C50.2263 16.8017 50.5539 16.1311 50.5539 15.3852C50.5539 14.0013 49.4281 12.8757 48.0444 12.8757C47.3363 12.8757 46.696 13.1711 46.2392 13.6445C42.2116 11.8111 37.9532 10.6172 33.5606 10.0902C33.2846 8.41411 32.2245 6.9998 30.7705 6.23653V4.599C30.7705 3.43885 29.8265 2.49512 28.6666 2.49512H27.9364C26.7762 2.49512 25.8325 3.43907 25.8325 4.599V6.23653C24.3728 7.0028 23.3099 8.42513 23.0391 10.1098C18.7643 10.6393 14.6153 11.8019 10.6866 13.5706C10.236 13.1406 9.62645 12.8757 8.95581 12.8757C7.572 12.8757 6.44636 14.0015 6.44636 15.3852C6.44636 16.1311 6.77388 16.8017 7.29223 17.2617L2.09397 29.2634H0.834963C0.373729 29.2634 0 29.6371 0 30.0983V31.1873C0 34.683 2.84411 37.527 6.3397 37.527H11.5716C15.0673 37.527 17.9113 34.6829 17.9113 31.1873V30.0983C17.9113 29.6371 17.5376 29.2634 17.0763 29.2634H15.8173L10.6193 17.2617C10.916 16.9984 11.1498 16.6661 11.2957 16.2899H24.9548V42.0234H24.4451C21.1831 42.0234 18.1054 44.539 18.1054 48.6415C17.0536 48.7915 16.2415 49.6957 16.2415 50.7882V52.3334C16.2415 53.5305 17.2155 54.5044 18.4125 54.5044H26.3531C26.8143 54.5044 27.1881 54.1307 27.1881 53.6694C27.1881 53.2082 26.8143 52.8345 26.3531 52.8345H18.4125C18.141 52.8345 17.9115 52.605 17.9115 52.3335V50.7884C17.9115 50.5168 18.141 50.2874 18.4125 50.2874C18.6797 50.2874 37.9175 50.2874 38.1906 50.2874C38.4622 50.2874 38.6916 50.5168 38.6916 50.7884V52.3335C38.6916 52.605 38.4622 52.8345 38.1906 52.8345H30.25C29.7888 52.8345 29.4151 53.2082 29.4151 53.6694C29.4151 54.1307 29.7888 54.5044 30.25 54.5044H38.1906C39.3877 54.5044 40.3616 53.5305 40.3616 52.3334V50.7882C40.3616 49.6957 39.5495 48.7915 38.4977 48.6415C38.4977 44.5751 35.4512 42.0234 32.158 42.0234H31.6483V32.0467C31.6483 31.5854 31.2746 31.2117 30.8133 31.2117C30.3521 31.2117 29.9784 31.5854 29.9784 32.0467V42.0234H26.6253V16.0237C27.7145 16.3878 28.8891 16.3878 29.9784 16.0237V28.1501C29.9784 28.6113 30.3521 28.9851 30.8133 28.9851C31.2746 28.9851 31.6483 28.6114 31.6483 28.1501V16.29H45.7046C45.8506 16.6661 46.0844 16.9984 46.3811 17.2618L41.1829 29.2635H39.9237C39.4624 29.2635 39.0887 29.6372 39.0887 30.0984V31.1874C39.0887 34.6831 41.9328 37.5271 45.4284 37.5271H50.6603C54.156 37.5271 57 34.683 57 31.1874V30.0984C57.0001 29.6371 56.6263 29.2634 56.1651 29.2634ZM8.9557 14.5457C9.42016 14.5457 9.8127 14.9297 9.79244 15.4202C9.79222 15.4261 9.79278 15.4319 9.79255 15.4377C9.76439 15.8893 9.38565 16.2244 8.95581 16.2244C8.50137 16.2244 8.11639 15.855 8.11639 15.385C8.11617 14.9224 8.49291 14.5457 8.9557 14.5457ZM16.2415 30.9334C16.2415 34.0311 13.9587 35.8571 11.5717 35.8571H6.3397C3.94559 35.8571 1.66993 34.0266 1.66993 30.9334C2.16077 30.9334 15.7747 30.9334 16.2415 30.9334ZM13.9975 29.2634H3.91386L8.83914 17.8917C8.91629 17.8959 9.00424 17.8954 9.07226 17.8917L13.9975 29.2634ZM12.461 14.62C15.8473 13.2105 19.3934 12.2618 23.0361 11.7918C23.1998 12.8312 23.67 13.8223 24.425 14.62H12.461ZM27.5024 4.599C27.5024 4.35976 27.697 4.16515 27.9363 4.16515H28.6665C28.9057 4.16515 29.1003 4.35976 29.1003 4.599V5.6879C28.8519 5.65027 28.5507 5.62812 28.3013 5.62812C28.0571 5.62812 27.7558 5.64961 27.5024 5.6879V4.599ZM32.1579 43.6935C34.5521 43.6935 36.8275 45.524 36.8275 48.6173H19.7755C19.7755 45.5196 22.0583 43.6935 24.4451 43.6935C25.2203 43.6935 31.3831 43.6935 32.1579 43.6935ZM28.3014 14.6201C26.2577 14.6201 24.5978 12.9369 24.6429 10.878C24.6429 10.876 24.6426 10.8741 24.6426 10.8721C24.6794 9.31264 25.6971 7.98761 27.1032 7.50055C29.4925 6.66937 31.9625 8.472 31.9625 10.9591C31.9625 12.9807 30.3187 14.6201 28.3014 14.6201ZM32.1771 14.62C32.9334 13.8199 33.411 12.8115 33.5706 11.772C37.2686 12.2348 40.8669 13.19 44.3018 14.62H32.1771ZM47.2077 15.4204C47.1877 14.9349 47.5756 14.5457 48.0443 14.5457C48.5071 14.5457 48.8837 14.9224 48.8837 15.3852C48.8837 15.8549 48.4985 16.2245 48.0443 16.2245C47.6102 16.2245 47.2356 15.8861 47.2076 15.4378C47.2074 15.432 47.208 15.4262 47.2077 15.4204ZM47.9277 17.8917C47.928 17.8917 47.9282 17.8917 47.9285 17.8917C48.0037 17.8952 48.0788 17.8962 48.1609 17.8917L53.0861 29.2634H43.0025L47.9277 17.8917ZM50.6603 35.857H45.4284C43.0342 35.857 40.7588 34.0265 40.7588 30.9332C41.2495 30.9332 54.8634 30.9332 55.3302 30.9332C55.3301 34.0311 53.0473 35.857 50.6603 35.857Z" fill="#7A9DD1"/>
<path d="M28.3016 8.49023C26.94 8.49023 25.8325 9.59784 25.8325 10.9592C25.8325 12.3207 26.9402 13.4282 28.3016 13.4282C29.6631 13.4282 30.7706 12.3206 30.7706 10.9592C30.7707 9.59773 29.6631 8.49023 28.3016 8.49023ZM28.3016 11.7583C27.861 11.7583 27.5026 11.3998 27.5026 10.9593C27.5026 10.5187 27.861 10.1604 28.3016 10.1604C28.7421 10.1604 29.1006 10.5187 29.1006 10.9593C29.1007 11.3998 28.7422 11.7583 28.3016 11.7583Z" fill="#7A9DD1"/>
</svg>
