<svg width="45" height="46" viewBox="0 0 45 46" fill="none" xmlns="http://www.w3.org/2000/svg">
<ellipse cx="22.4855" cy="22.6941" rx="21.962" ry="22.6941" fill="white"/>
<path d="M33.107 28.8986C32.23 27.2167 29.9709 25.1957 29.0382 24.3163C28.783 24.0755 28.7556 23.6589 28.9879 23.3926C30.7678 21.3544 32.1915 19.0125 32.6815 17.5974C32.8977 16.9723 32.4501 16.3118 31.8196 16.3118H29.9879C29.3842 16.3118 29.0309 16.5427 28.8625 16.9104C27.3832 20.1406 26.1143 21.5385 25.2261 22.3556C24.7288 22.8132 23.9533 22.4341 23.9533 21.7377C23.9533 20.3959 23.9533 18.6615 23.9533 17.4315C23.9533 16.835 23.4955 16.3524 22.9308 16.3524L19.5848 16.3118C19.1636 16.3118 18.923 16.8199 19.1758 17.1762L19.7283 18.0213C19.9362 18.3141 20.0484 18.6703 20.0484 19.036L20.0455 22.8418C20.0455 23.5039 19.2924 23.8274 18.8454 23.3635C17.3329 21.7939 16.0206 18.5887 15.5481 17.056C15.4115 16.6124 15.0215 16.3128 14.5794 16.3118L12.7751 16.3071C12.0982 16.3071 11.6033 16.991 11.7873 17.6796C13.4359 23.8461 16.8185 29.7125 22.8469 30.3486C23.4408 30.411 23.9533 29.9013 23.9533 29.2705V27.2703C23.9533 26.6966 24.3754 26.2036 24.9181 26.189C24.9372 26.1885 24.9562 26.1885 24.9752 26.1885C26.5697 26.1885 28.3554 28.6615 28.9801 29.8181C29.1597 30.1509 29.4955 30.3538 29.8586 30.3538H32.2857C32.9938 30.3538 33.4482 29.5534 33.107 28.8986Z" fill="black"/>
</svg>
