<svg width="44" height="46" viewBox="0 0 44 46" fill="none" xmlns="http://www.w3.org/2000/svg">
<ellipse cx="22.0382" cy="22.6941" rx="21.962" ry="22.6941" fill="white"/>
<path d="M18.2335 33.4743C18.1452 33.4743 18.056 33.4583 17.97 33.4258C17.6835 33.3165 17.4946 33.0419 17.4946 32.7354V30.4724C16.4322 30.1544 15.4324 29.701 14.7868 29.1217C13.5048 27.8287 12.9224 26.0173 12.9224 23.3915V21.9136C12.9224 19.2878 13.5048 17.4764 14.7553 16.214C16.9098 14.2754 20.7701 14.2754 22.0384 14.2754C23.3067 14.2754 27.1666 14.2754 29.2896 16.1843C30.5711 17.4759 31.1536 19.2868 31.1536 21.9136L31.154 23.3915C31.154 26.0173 30.5716 27.8287 29.3211 29.0911C27.1666 31.0292 23.3063 31.0292 22.038 31.0292C21.7346 31.0292 21.3997 31.0292 20.8291 31.0004C20.2316 31.6689 18.7849 33.2277 18.7849 33.2277C18.6416 33.3878 18.4399 33.4743 18.2335 33.4743ZM25.9051 26.1047C25.3968 25.6764 25.1621 25.5469 24.4602 25.1255C24.1678 24.9503 23.7222 24.7989 23.4884 24.7989C23.3287 24.7989 23.1375 24.921 23.0203 25.0382C22.7202 25.3383 22.6218 25.7139 22.0956 25.7139C21.5809 25.7139 20.6818 25.1901 20.0367 24.5129C19.3595 23.8678 18.8356 22.9687 18.8356 22.454C18.8356 21.9278 19.2044 21.8225 19.5046 21.5219C19.6217 21.4053 19.7507 21.214 19.7507 21.0543C19.7507 20.8205 19.5993 20.3817 19.424 20.0894C19.0026 19.3871 18.8736 19.1523 18.4449 18.6445C18.2999 18.4724 18.1347 18.3937 17.9617 18.3933C17.6694 18.3928 17.2855 18.5379 17.0256 18.7314C16.6349 19.0228 16.2263 19.4195 16.1169 19.9137C16.1023 19.9809 16.0936 20.0487 16.0908 20.1164C16.0698 20.6311 16.272 21.1536 16.4903 21.5961C17.0041 22.6388 17.684 23.6481 18.4239 24.5495C18.6604 24.8378 18.918 25.1059 19.1847 25.3648C19.4437 25.6311 19.7118 25.8887 20.0001 26.1257C20.9014 26.8656 21.9108 27.5455 22.9535 28.0593C23.3918 28.2753 23.908 28.4738 24.4177 28.4592C24.4904 28.4569 24.5632 28.4487 24.6359 28.4327C25.13 28.3238 25.5267 27.9147 25.8182 27.524C26.0117 27.2641 26.1568 26.8807 26.1563 26.5878C26.1559 26.4149 26.0772 26.2497 25.9051 26.1047ZM27.5289 22.5111V22.0536C27.5289 19.2786 25.271 17.0206 22.496 17.0206C22.2434 17.0206 22.0384 17.2256 22.0384 17.4782C22.0384 17.7307 22.2434 17.9357 22.496 17.9357C24.7663 17.9357 26.6139 19.7833 26.6139 22.0536V22.5111C26.6139 22.7637 26.8188 22.9687 27.0714 22.9687C27.324 22.9687 27.5289 22.7637 27.5289 22.5111ZM24.3769 22.0385C24.6213 21.9745 24.7677 21.7251 24.7041 21.4803C24.495 20.6787 23.8681 20.0523 23.0684 19.8451C22.8227 19.7824 22.5738 19.9292 22.5106 20.1736C22.4475 20.4184 22.5943 20.6677 22.8391 20.7313C23.3182 20.8548 23.6934 21.2305 23.8187 21.7114C23.8723 21.9173 24.058 22.0536 24.2612 22.0536C24.2991 22.0536 24.338 22.0486 24.3769 22.0385ZM26.1563 22.0536C26.1563 20.1081 24.6345 18.5035 22.6913 18.401C22.4429 18.3873 22.2237 18.5813 22.2105 18.8339C22.1972 19.086 22.3907 19.3015 22.6433 19.3148C24.1001 19.3916 25.2412 20.595 25.2412 22.0536C25.2412 22.3062 25.4462 22.5111 25.6988 22.5111C25.9513 22.5111 26.1563 22.3062 26.1563 22.0536Z" fill="black"/>
</svg>
