<svg width="45" height="46" viewBox="0 0 45 46" fill="none" xmlns="http://www.w3.org/2000/svg">
<ellipse cx="22.2765" cy="22.6941" rx="21.962" ry="22.6941" fill="white"/>
<path d="M12.766 22.1348C19.0914 19.3521 27.277 15.9594 28.4069 15.4898C31.3708 14.2608 32.2803 14.4963 31.8268 17.2181C31.5012 19.1744 30.5615 25.6514 29.8126 29.6828C29.3682 32.0734 28.3712 32.3568 26.8034 31.3225C26.0495 30.8247 22.2441 28.3083 21.4182 27.7174C20.6642 27.1789 19.6244 26.5311 20.9284 25.2553C21.3925 24.8008 24.4344 21.8963 26.8044 19.6355C27.115 19.3385 26.7249 18.8508 26.3666 19.0889C23.1721 21.2073 18.7431 24.1475 18.1794 24.5305C17.3279 25.1088 16.51 25.374 15.0419 24.9523C13.9326 24.6337 12.849 24.2537 12.4273 24.1088C10.8031 23.5511 11.1887 22.8289 12.766 22.1348Z" fill="black"/>
</svg>
