<svg width="44" height="45" viewBox="0 0 44 45" fill="none" xmlns="http://www.w3.org/2000/svg">
<circle cx="21.962" cy="22.4264" r="21.962" fill="white"/>
<path d="M17.3253 12.4517C14.3777 12.4517 11.9873 14.842 11.9873 17.7897V26.3304C11.9873 29.2781 14.3777 31.6684 17.3253 31.6684H25.8661C28.8137 31.6684 31.2041 29.2781 31.2041 26.3304V17.7897C31.2041 14.842 28.8137 12.4517 25.8661 12.4517H17.3253ZM28.0013 14.5869C28.5906 14.5869 29.0689 15.0651 29.0689 15.6545C29.0689 16.2438 28.5906 16.7221 28.0013 16.7221C27.412 16.7221 26.9337 16.2438 26.9337 15.6545C26.9337 15.0651 27.412 14.5869 28.0013 14.5869ZM21.5957 16.7221C24.5433 16.7221 26.9337 19.1124 26.9337 22.06C26.9337 25.0077 24.5433 27.398 21.5957 27.398C18.6481 27.398 16.2577 25.0077 16.2577 22.06C16.2577 19.1124 18.6481 16.7221 21.5957 16.7221ZM21.5957 18.8573C20.7463 18.8573 19.9316 19.1947 19.331 19.7953C18.7303 20.396 18.3929 21.2106 18.3929 22.06C18.3929 22.9095 18.7303 23.7241 19.331 24.3248C19.9316 24.9254 20.7463 25.2628 21.5957 25.2628C22.4451 25.2628 23.2598 24.9254 23.8604 24.3248C24.4611 23.7241 24.7985 22.9095 24.7985 22.06C24.7985 21.2106 24.4611 20.396 23.8604 19.7953C23.2598 19.1947 22.4451 18.8573 21.5957 18.8573Z" fill="black"/>
</svg>
