<svg width="45" height="46" viewBox="0 0 45 46" fill="none" xmlns="http://www.w3.org/2000/svg">
<ellipse cx="22.5148" cy="22.6941" rx="21.962" ry="22.6941" fill="white"/>
<path d="M29.5726 16.3727C27.7892 14.5884 25.4177 13.6049 22.8911 13.604C17.6847 13.604 13.4475 17.8393 13.4456 23.0457C13.4447 24.7099 13.8796 26.3344 14.7061 27.7661L13.4248 32.5158L18.3731 31.3461C19.7527 32.0987 21.3053 32.4949 22.8863 32.4959H22.8901C28.0956 32.4959 32.3328 28.2597 32.3356 23.0542C32.3375 20.5304 31.356 18.158 29.5726 16.3727ZM27.5122 26.4205C27.3155 26.9718 26.3519 27.5032 25.9188 27.542C25.4858 27.5817 25.0801 27.7377 23.0868 26.9519C20.6879 26.0063 19.173 23.5469 19.0558 23.3899C18.9376 23.232 18.0922 22.1105 18.0922 20.9493C18.0922 19.7881 18.7021 19.217 18.9187 18.9816C19.1352 18.7452 19.3905 18.6865 19.5484 18.6865C19.7054 18.6865 19.8633 18.6865 20.0004 18.6922C20.1687 18.6988 20.355 18.7073 20.5318 19.0998C20.7418 19.5669 21.2004 20.7337 21.259 20.8519C21.3176 20.9701 21.3573 21.1082 21.2789 21.2652C21.2004 21.4221 21.1607 21.5205 21.0434 21.6585C20.9252 21.7966 20.7957 21.9658 20.6898 22.0717C20.5716 22.189 20.4486 22.3176 20.5857 22.553C20.7238 22.7894 21.1966 23.562 21.8982 24.187C22.8003 24.9908 23.5596 25.2395 23.796 25.3586C24.0324 25.4768 24.1695 25.4569 24.3076 25.299C24.4456 25.1421 24.8976 24.6106 25.0546 24.3742C25.2115 24.1378 25.3695 24.1776 25.586 24.256C25.8025 24.3345 26.9628 24.9057 27.1982 25.0239C27.4346 25.1421 27.5916 25.2007 27.6502 25.299C27.7088 25.3964 27.7088 25.8692 27.5122 26.4205Z" fill="black"/>
</svg>
