<svg width="44" height="44" viewBox="0 0 44 44" fill="none" xmlns="http://www.w3.org/2000/svg">
<circle cx="21.962" cy="21.962" r="21.962" fill="white"/>
<path d="M21.2986 14.2397C22.6337 14.2397 23.7194 15.3014 23.7194 16.6068C23.7194 17.9083 22.6337 18.9699 21.2986 18.9699C19.9635 18.9699 18.8777 17.9083 18.8777 16.6068C18.8777 15.3014 19.9635 14.2397 21.2986 14.2397ZM21.2986 22.32C24.5237 22.32 27.1457 19.7563 27.1457 16.6068C27.1457 13.4533 24.5237 10.8896 21.2986 10.8896C18.0734 10.8896 15.4555 13.4533 15.4555 16.6068C15.4555 19.7563 18.0734 22.32 21.2986 22.32ZM23.6631 26.9833C24.8535 26.716 25.9996 26.2559 27.0572 25.6071C27.8574 25.1156 28.0987 24.0815 27.596 23.2991C27.0894 22.5127 26.0358 22.2767 25.2315 22.7722C22.8388 24.2427 19.7584 24.2427 17.3617 22.7722C16.5614 22.2767 15.5038 22.5127 15.0011 23.2991C14.4985 24.0815 14.7397 25.1156 15.54 25.6071C16.5976 26.2559 17.7437 26.716 18.934 26.9833L15.6647 30.1761C14.9971 30.8288 14.9971 31.8905 15.6647 32.5432C16.0024 32.8695 16.4368 33.0347 16.8751 33.0347C17.3134 33.0347 17.7517 32.8695 18.0895 32.5432L21.2986 29.4055L24.5117 32.5432C25.1792 33.1998 26.261 33.1998 26.9325 32.5432C27.6001 31.8905 27.6001 30.8288 26.9325 30.1761L23.6631 26.9833Z" fill="black"/>
</svg>
