<svg width="56" height="56" viewBox="0 0 56 56" fill="none" xmlns="http://www.w3.org/2000/svg">
<g clip-path="url(#clip0)">
<path d="M42.9061 36.9942C43.3473 36.8913 43.6215 36.4501 43.5186 36.009C43.4157 35.5678 42.9743 35.2938 42.5333 35.3966C41.205 35.7066 40.0201 36.466 39.1835 37.5382C38.0206 37.0376 36.7331 36.9207 35.4769 37.2139C35.0357 37.3168 34.7615 37.758 34.8644 38.1991C34.9673 38.6403 35.4088 38.9145 35.8497 38.8115C36.9757 38.5487 38.1362 38.7397 39.1177 39.3492C40.099 39.9585 40.7836 40.9133 41.0457 42.0376C41.111 42.318 41.1485 42.6043 41.1574 42.8887C41.1711 43.3329 41.5355 43.6836 41.9768 43.6836C41.9854 43.6836 41.994 43.6835 42.0027 43.6833C42.4555 43.6693 42.8113 43.2909 42.7972 42.838C42.7851 42.4455 42.7333 42.051 42.6434 41.6653C42.3397 40.3622 41.6233 39.2255 40.6 38.3964C41.1971 37.6986 42.006 37.2042 42.9061 36.9942Z" fill="#7A9DD1"/>
<path d="M17.9716 38.0787C18.0006 37.1478 18.2292 36.2129 18.6684 35.3369C19.2571 34.1621 20.1715 33.2026 21.3126 32.5621C21.7077 32.3404 21.8481 31.8403 21.6264 31.4453C21.4047 31.0502 20.9048 30.9098 20.5096 31.1315C19.0817 31.933 17.9379 33.1329 17.2017 34.6017C16.733 35.5369 16.4573 36.5255 16.3635 37.519C14.5083 38.2964 12.9761 39.7455 12.1108 41.5667C11.9164 41.9759 12.0905 42.4653 12.4997 42.6597C12.6134 42.7138 12.7333 42.7393 12.8513 42.7393C13.1581 42.7393 13.4523 42.5664 13.5927 42.2709C14.1887 41.0165 15.1808 39.983 16.3926 39.3224C16.6224 41.1126 17.446 42.8208 18.8137 44.1519C18.9732 44.307 19.1796 44.3843 19.3857 44.3843C19.5994 44.3843 19.8129 44.3013 19.9737 44.1362C20.2896 43.8114 20.2825 43.2921 19.9578 42.9761C18.6156 41.6699 17.9289 39.9095 17.9703 38.1309C17.9711 38.1134 17.9719 38.0962 17.9716 38.0787Z" fill="#7A9DD1"/>
<path d="M33.0038 14.6414C32.5678 14.5187 32.1146 14.7727 31.9918 15.2088C31.8691 15.6448 32.1231 16.0979 32.5593 16.2206C34.3624 16.7282 35.8059 17.9479 36.6181 19.5309C36.6255 19.5463 36.6329 19.5616 36.6415 19.5766C37.0602 20.4087 37.3054 21.3392 37.3374 22.3188C37.3805 23.6321 37.0347 24.9116 36.3375 26.0191C36.0961 26.4024 36.2113 26.9089 36.5947 27.1503C36.7304 27.2359 36.8815 27.2766 37.0309 27.2766C37.3034 27.2766 37.5699 27.1408 37.7258 26.8932C38.5983 25.5074 39.031 23.907 38.9771 22.2651C38.9428 21.2196 38.7134 20.2191 38.3217 19.3015C39.5811 17.7331 40.2363 15.7284 40.1278 13.7151C40.1034 13.2628 39.7141 12.9164 39.2645 12.9401C38.812 12.9645 38.4651 13.351 38.4895 13.8034C38.5642 15.1902 38.1853 16.5719 37.4356 17.7306C36.3797 16.2668 34.8409 15.1586 33.0038 14.6414Z" fill="#7A9DD1"/>
<path d="M54.7158 33.704C54.4941 31.8754 53.4305 30.2655 51.8943 29.3253C53.3863 27.8018 54.2483 25.7318 54.2483 23.5736C54.2483 21.51 53.4801 19.5379 52.0851 18.0203C50.9266 16.7602 49.4216 15.9036 47.7721 15.5506C47.924 14.9218 48.0005 14.2767 48.0005 13.623C48.0005 9.09803 44.3228 5.41669 39.8022 5.41669C39.6868 5.41669 39.5712 5.41997 39.4557 5.42489C39.4304 5.42598 39.4051 5.4273 39.3798 5.42861C39.269 5.4343 39.1584 5.44184 39.0482 5.45191C39.0462 5.45213 39.0441 5.45212 39.0422 5.45234C38.7797 2.40177 36.2154 0 33.1009 0C30.9413 0 29.0463 1.15511 27.9998 2.88028C26.9533 1.15511 25.0582 0 22.8986 0C19.7842 0 17.2199 2.40188 16.9575 5.45223C15.3375 5.30053 13.7019 5.63905 12.2885 6.40763C11.8905 6.62408 11.7434 7.12217 11.9597 7.52019C12.1762 7.91809 12.6738 8.06531 13.0723 7.84897C14.4331 7.10883 16.0569 6.87269 17.6006 7.20945C17.6074 7.21098 17.6143 7.21142 17.6211 7.21263C18.4241 7.39058 19.1784 7.71487 19.8627 8.17775C20.0036 8.27302 20.1634 8.31873 20.3215 8.31873C20.5847 8.31873 20.8433 8.1923 21.0019 7.95791C21.2556 7.58264 21.1572 7.07263 20.7818 6.81888C20.0997 6.35753 19.3612 6.00764 18.5809 5.77095C18.6847 3.47583 20.5814 1.64062 22.8986 1.64062C25.0632 1.64062 26.861 3.24198 27.1731 5.32372C27.1503 5.5358 27.1377 17.9093 27.1377 17.9093C24.6764 18.9768 21.8193 18.4481 19.8988 16.5274C18.9696 15.5982 18.3472 14.428 18.0993 13.1432C18.0135 12.6984 17.584 12.4072 17.1383 12.4932C16.6935 12.5791 16.4024 13.0094 16.4884 13.4542C16.7988 15.0619 17.577 16.5259 18.7387 17.6876C20.3194 19.2683 22.4075 20.0954 24.5278 20.0954C25.4034 20.0954 26.2847 19.9539 27.1378 19.6666C27.1378 19.6666 27.1499 49.789 27.1732 50.0154C26.8366 52.4655 24.7332 54.3594 22.1949 54.3594C19.9937 54.3594 18.0619 52.9155 17.4067 50.8565C18.3071 50.2527 19.0973 49.4748 19.723 48.5475C19.9765 48.172 19.8775 47.6621 19.502 47.4087C19.1265 47.1552 18.6166 47.2543 18.3632 47.6297C17.8172 48.4387 17.1171 49.1083 16.317 49.6112C16.3284 49.6295 16.3385 49.6488 16.3493 49.6676C16.2475 49.6817 16.1479 49.7142 16.0561 49.7664C15.0251 50.3538 13.8518 50.6644 12.6629 50.6644C8.8725 50.6644 5.78878 47.5769 5.78878 43.782C5.78878 42.5647 6.10597 41.3849 6.70862 40.3419C6.70884 40.3424 6.70917 40.3429 6.70939 40.3433C7.11211 39.6452 7.63754 39.0137 8.27476 38.4841C8.62312 38.1945 8.6707 37.6773 8.38118 37.3289C8.09156 36.9806 7.57454 36.9328 7.22586 37.2225C6.74264 37.6242 6.31148 38.0734 5.93447 38.5593C3.96014 37.9549 2.65759 36.0018 2.91222 33.9015C3.11303 32.2453 4.26628 30.8363 5.85025 30.3122C5.85167 30.3118 5.85309 30.3109 5.85451 30.3104C6.44908 30.1142 7.08411 30.0486 7.72406 30.1265C8.00986 30.1612 8.29171 30.224 8.56198 30.3133C8.99226 30.4555 9.45612 30.2216 9.59809 29.7913C9.74006 29.3611 9.50643 28.8972 9.07626 28.7552C8.70351 28.6322 8.31523 28.5456 7.92203 28.4978C7.18976 28.4088 6.46176 28.4558 5.76647 28.6284C4.27262 27.3861 3.39161 25.525 3.39161 23.5736C3.39161 21.9224 4.00619 20.3445 5.12203 19.1306C6.09678 18.0703 7.37778 17.3675 8.77647 17.1147C9.51464 18.6827 10.7434 19.9923 12.2689 20.8273C12.3939 20.8958 12.5289 20.9281 12.662 20.9281C12.9521 20.9281 13.2333 20.7739 13.3824 20.5016C13.5998 20.1041 13.454 19.6057 13.0565 19.3881C11.7499 18.6729 10.715 17.523 10.1427 16.1502C10.1276 16.1141 9.63933 14.4155 9.63933 13.6229C9.63933 12.3069 10.0265 11.0376 10.759 9.95214C11.0124 9.57666 10.9134 9.06675 10.5379 8.81333C10.1624 8.55991 9.65256 8.65889 9.39914 9.03438C8.48301 10.3919 7.9987 11.9786 7.9987 13.6229C7.9987 14.2766 8.07526 14.9218 8.22708 15.5505C6.57759 15.9035 5.07259 16.7601 3.91409 18.0202C2.51912 19.5378 1.75087 21.5099 1.75087 23.5735C1.75087 25.7318 2.61308 27.8018 4.10506 29.3252C2.56867 30.2654 1.50511 31.8753 1.28351 33.7039C0.950467 36.4503 2.54865 39.0157 5.03792 39.9848C4.4532 41.1584 4.14793 42.4524 4.14793 43.7819C4.14793 48.4816 7.96764 52.3049 12.6627 52.3049C13.7907 52.3049 14.9075 52.0792 15.9426 51.6467C16.897 54.2212 19.3807 56 22.1949 56C24.682 56 26.854 54.6288 27.9998 52.6028C29.1455 54.6288 31.3174 56 33.8045 56C36.619 56 39.1026 54.2213 40.0566 51.6468C41.0917 52.0793 42.2087 52.305 43.3367 52.305C44.4876 52.305 45.6043 52.0788 46.6561 51.6329C47.0732 51.4559 47.2678 50.9744 47.091 50.5574C46.9141 50.1403 46.4327 49.9455 46.0155 50.1225C45.1676 50.4821 44.2665 50.6645 43.3368 50.6645C42.1478 50.6645 40.9744 50.354 39.9434 49.7665C39.9377 49.7632 39.9316 49.7609 39.9258 49.7579C39.0139 49.2361 38.2316 48.5117 37.6365 47.6299C37.3831 47.2543 36.873 47.1553 36.4977 47.4088C36.1221 47.6622 36.0231 48.172 36.2766 48.5476C36.8975 49.4679 37.6841 50.249 38.5922 50.8588C37.9363 52.9165 36.0049 54.3594 33.8045 54.3594C31.2665 54.3594 29.163 52.4655 28.8265 50.0152C28.8498 49.7888 28.8494 5.53569 28.8265 5.32361C29.1386 3.24198 30.9364 1.64062 33.1009 1.64062C35.4181 1.64062 37.3149 3.47594 37.4186 5.77106C36.6386 6.00873 35.893 6.36191 35.2176 6.81877C34.8424 7.07262 34.7439 7.58253 34.9978 7.9578C35.1563 8.19219 35.4148 8.31862 35.678 8.31862C35.8361 8.31862 35.996 8.27302 36.1368 8.17764C36.8324 7.70711 37.6213 7.37548 38.4415 7.20125C38.9851 7.06497 39.6943 7.05698 39.8022 7.05698C43.4181 7.05698 46.3599 10.0023 46.3599 13.6227C46.3599 14.4152 46.2195 15.1915 45.9424 15.9302C45.9406 15.9351 45.9396 15.9402 45.9378 15.945C45.3838 17.4113 44.3209 18.6337 42.9428 19.388C42.5454 19.6056 42.3996 20.1041 42.6171 20.5015C42.7662 20.7739 43.0474 20.928 43.3374 20.928C43.4705 20.928 43.6055 20.8955 43.7306 20.8272C45.264 19.9878 46.484 18.684 47.222 17.1143C48.6211 17.3671 49.9022 18.0698 50.8772 19.1303C51.993 20.3443 52.6076 21.9221 52.6076 23.5734C52.6076 25.5251 51.7262 27.3866 50.2319 28.6289C49.5334 28.4553 48.806 28.4092 48.0771 28.4975C47.6839 28.5455 47.2956 28.632 46.9228 28.755C46.4926 28.897 46.2591 29.3608 46.401 29.7911C46.543 30.2214 47.0066 30.4549 47.4371 30.3131C47.7073 30.2239 47.9893 30.161 48.2751 30.1263C48.9116 30.0489 49.5466 30.1129 50.1448 30.3102C50.1462 30.3107 50.1476 30.3114 50.149 30.312C51.7328 30.8361 52.8861 32.2451 53.087 33.9014C53.3416 36.0015 52.0392 37.9544 50.0651 38.559C49.6857 38.0696 49.2541 37.6222 48.7734 37.2224C48.425 36.9328 47.9078 36.9803 47.6183 37.3287C47.3286 37.6771 47.3761 38.1943 47.7246 38.4839C48.2551 38.925 48.7112 39.4382 49.0867 40.0115C49.1124 40.0507 49.1381 40.0899 49.163 40.1296C49.1916 40.1754 49.2194 40.2219 49.247 40.2685C49.8777 41.3293 50.2104 42.5357 50.2104 43.782C50.2104 45.4501 49.6069 47.0591 48.5112 48.3126C48.2129 48.6537 48.2478 49.1719 48.5889 49.4701C48.9299 49.7682 49.4481 49.7335 49.7464 49.3924C51.1036 47.84 51.8511 45.8475 51.8511 43.7822C51.8511 42.4525 51.5459 41.1586 50.9612 39.985C53.4506 39.0158 55.0489 36.4504 54.7158 33.704Z" fill="#7A9DD1"/>
</g>
<defs>
<clipPath id="clip0">
<rect width="56" height="56" fill="white"/>
</clipPath>
</defs>
</svg>
