<svg width="63" height="63" viewBox="0 0 63 63" fill="none" xmlns="http://www.w3.org/2000/svg">
<g clip-path="url(#clip0)">
<path d="M32.3773 16.9353L35.1145 18.2118C35.407 18.3482 35.7165 18.413 36.022 18.413C36.7865 18.413 37.5271 18.0073 37.9189 17.3015L44.2303 5.92907C44.5204 5.40648 44.5809 4.78066 44.3963 4.21229C44.2118 3.64381 43.7952 3.1729 43.2536 2.92028L38.8598 0.871388C38.3181 0.618768 37.6894 0.602403 37.1353 0.826475C36.5811 1.05055 36.1407 1.49906 35.927 2.05709L31.2722 14.2018C30.8677 15.2571 31.3531 16.4578 32.3773 16.9353ZM32.9956 14.8624L37.6505 2.71762C37.6934 2.60589 37.7796 2.55679 37.8274 2.53759C37.875 2.5184 37.9716 2.49367 38.0797 2.54424L42.4736 4.59313C42.5822 4.64383 42.6249 4.73341 42.6409 4.78226C42.6568 4.83111 42.6746 4.92881 42.6167 5.03352L36.3053 16.4058C36.225 16.5505 36.0445 16.609 35.8948 16.5391L33.1575 15.2626C33.0075 15.1927 32.9364 15.017 32.9956 14.8624Z" fill="#7A9DD1"/>
<path d="M62.7978 25.1481L60.7491 20.7543C60.4966 20.2126 60.0257 19.7961 59.4572 19.6115C58.8886 19.4268 58.2627 19.4874 57.7401 19.7775L46.3678 26.0889C45.3798 26.6374 44.98 27.8692 45.4576 28.8932L46.7339 31.6306C47.0976 32.4106 47.8806 32.8782 48.6995 32.8782C48.9559 32.8782 49.2157 32.8323 49.4674 32.7359L53.0756 31.353C53.5514 31.1706 53.7894 30.6368 53.6069 30.1609C53.4247 29.6851 52.8916 29.447 52.4148 29.6294L48.8067 31.0124C48.6522 31.0713 48.4764 31.0004 48.4068 30.8507L47.1302 28.1132C47.0604 27.9634 47.1189 27.7831 47.2635 27.7029L58.6358 21.3914C58.7409 21.3332 58.8384 21.3513 58.8872 21.3672C58.9359 21.3831 59.0255 21.4259 59.0762 21.5344L61.1251 25.9284C61.1757 26.0369 61.1509 26.1331 61.1316 26.1807C61.1124 26.2284 61.0633 26.3147 60.9515 26.3577L56.4672 28.0764C55.9914 28.2588 55.7534 28.7926 55.9359 29.2685C56.1181 29.7444 56.6513 29.9826 57.128 29.8L61.6123 28.0812C62.1703 27.8673 62.6189 27.4269 62.843 26.8726C63.0669 26.3182 63.0504 25.6898 62.7978 25.1481Z" fill="#7A9DD1"/>
<path d="M44.075 24.5211C44.4018 24.4388 44.7079 24.2824 44.9657 24.0585L54.7861 15.5306C55.2374 15.1387 55.5082 14.5715 55.5292 13.9741C55.5503 13.3768 55.3199 12.7918 54.8974 12.3693L51.4692 8.94111C51.0467 8.51844 50.4624 8.28981 49.8643 8.30913C49.267 8.33017 48.6996 8.601 48.3077 9.05235L39.7798 18.8728C39.5354 19.1543 39.3726 19.4897 39.2981 19.8474H38.6939C37.7504 19.8474 36.8632 20.2149 36.196 20.8822C36.1574 20.9209 36.1198 20.9604 36.0832 21.0007C35.4367 20.2926 34.5067 19.8476 33.4747 19.8476H31.6262C30.5941 19.8476 29.6641 20.2926 29.0177 21.0007C28.981 20.9605 28.9436 20.9209 28.9049 20.8822C28.2376 20.215 27.3505 19.8476 26.407 19.8476H25.908C26.0461 18.9911 26.1007 18.1193 26.066 17.2456C25.8198 11.0444 21.1854 5.84815 15.0462 4.88997C14.5423 4.81183 14.0707 5.156 13.9922 5.65939C13.9135 6.16303 14.2581 6.63493 14.7617 6.71355C20.0319 7.53614 24.0103 11.9963 24.2217 17.3188C24.2996 19.2809 23.8617 21.2319 22.9553 22.9606C22.886 23.0927 22.8499 23.2398 22.8499 23.389V27.5846H18.6543C18.505 27.5846 18.358 27.6208 18.2258 27.6901C16.497 28.5965 14.5445 29.0338 12.584 28.9565C6.74717 28.7248 2.03292 23.9693 1.8513 18.1304C1.68198 12.686 5.41923 7.92817 10.7372 6.81728C11.2361 6.71306 11.5561 6.22406 11.452 5.72522C11.3477 5.22638 10.859 4.90682 10.3599 5.01055C4.16351 6.30478 -0.190578 11.8465 0.00642338 18.1878C0.217822 24.9905 5.71024 30.5308 12.5105 30.8008C12.6837 30.8077 12.8564 30.811 13.0292 30.811C13.3396 30.811 13.6494 30.7986 13.9581 30.7767L13.9582 32.5954C13.9582 33.1158 14.0469 33.6229 14.2215 34.1064C13.7121 34.851 13.3004 35.6624 13.0043 36.5173L11.4667 40.9574C10.9274 42.5147 11.0175 44.1933 11.7203 45.684L12.8395 48.0577C13.4532 49.3594 14.2804 50.5352 15.2978 51.5526L17.8685 54.1231L17.8691 61.4071C17.8691 61.9168 18.2823 62.33 18.7921 62.33C19.3017 62.33 19.7148 61.9168 19.7148 61.4071L19.7143 55.9691L19.8899 56.1446C20.0701 56.3248 20.3063 56.4149 20.5424 56.4149C20.7787 56.4149 21.0148 56.3248 21.1951 56.1446C21.5555 55.7841 21.5555 55.1998 21.195 54.8395L16.6032 50.2477C15.7365 49.3811 15.0319 48.3794 14.5091 47.2708L13.3901 44.8971C12.8941 43.8452 12.8305 42.6606 13.2111 41.5615L14.7487 37.1216C15.1976 35.8254 15.9687 34.6497 16.9786 33.722L21.6148 29.4622C21.6259 29.4522 21.6355 29.4411 21.6459 29.4306H22.8727C23.8779 29.4306 24.6956 28.6128 24.6956 27.6076V26.6153C24.7346 26.5892 24.7726 26.5609 24.8083 26.5281L27.1342 24.391C27.4455 24.1201 27.916 24.1357 28.2088 24.4283C29.871 26.0906 29.871 28.7952 28.2088 30.4576L22.5809 36.0856C22.2205 36.446 22.2205 37.0304 22.5809 37.3907L23.4881 38.2979C25.1936 40.0034 25.8671 42.4216 25.2898 44.767C25.168 45.2619 25.4703 45.7618 25.9652 45.8838C26.0394 45.902 26.1135 45.9107 26.1866 45.9107C26.6014 45.9107 26.9784 45.6289 27.0819 45.2082C27.561 43.2622 27.3613 41.2764 26.5613 39.5294C28.2042 39.1195 29.489 37.7959 29.8422 36.1315C30.5936 36.7084 31.5324 37.0524 32.5507 37.0524C34.4352 37.0524 36.0491 35.876 36.6998 34.2196C37.4824 34.8995 38.5028 35.3125 39.6184 35.3125C40.5693 35.3125 41.4742 35.0159 42.2291 34.4679L42.2293 40.7354C42.2286 43.293 41.3804 45.8232 39.8406 47.8602L37.4429 51.0338C37.3219 51.1941 37.2563 51.3895 37.2563 51.5904L37.2569 54.1819C37.2571 54.6916 37.6701 55.1046 38.1798 55.1046H38.18C38.6897 55.1044 39.1028 54.6911 39.1027 54.1814L39.1022 51.8995L41.3132 48.9729C43.0935 46.6177 44.0743 43.6924 44.0751 40.7355L44.075 24.5211ZM15.804 32.2941L15.8038 30.5122C16.8675 30.2815 17.9011 29.9197 18.8769 29.4302H18.9208L15.804 32.2941ZM49.7014 10.2625C49.7799 10.1721 49.8778 10.1556 49.9293 10.1538C49.9808 10.1518 50.0798 10.1618 50.164 10.2463L53.5922 13.6743C53.6768 13.759 53.6866 13.8579 53.6847 13.9092C53.6829 13.9605 53.6664 14.0585 53.5758 14.1371L43.9604 22.4871C43.6272 21.2125 42.5979 20.2171 41.3051 19.9314L49.7014 10.2625ZM25.9053 23.0134C25.9011 23.0171 25.8969 23.0209 25.8927 23.0247L24.6955 24.1247V23.6118C25.0058 22.9931 25.2652 22.3512 25.4723 21.6933H26.4068C26.8574 21.6933 27.281 21.8688 27.5996 22.1873C27.6523 22.2401 27.6997 22.2967 27.7445 22.3549C27.091 22.3318 26.4291 22.5495 25.9053 23.0134ZM25.5188 37.8141C25.2962 37.5282 25.0544 37.2536 24.7932 36.9924L24.5386 36.7378L28.0938 33.1825V35.2048C28.0938 36.6324 26.9419 37.7946 25.5188 37.8141ZM32.5506 35.2063C31.1109 35.2063 29.9396 34.035 29.9396 32.5953C29.9396 32.5948 29.9395 32.5943 29.9395 32.5937V31.2901C31.7536 29.0561 31.7536 25.8292 29.9395 23.5951L29.9393 23.3801C29.9393 22.4499 30.696 21.6933 31.6261 21.6933H33.4745C34.4047 21.6933 35.1613 22.4499 35.1614 23.3801L35.1615 30.8537C35.1615 30.8543 35.1614 30.8549 35.1614 30.8556C35.1614 30.8569 35.1615 30.8582 35.1615 30.8595V32.5953C35.1615 34.0349 33.9902 35.2062 32.5506 35.2063ZM39.6182 33.4664C38.1792 33.4664 37.0085 32.2962 37.0073 30.8572L37.0071 23.3798C37.0071 22.9293 37.1826 22.5057 37.5012 22.1872C37.8198 21.8686 38.2433 21.6932 38.6938 21.6932H40.5422C41.4724 21.6932 42.229 22.4498 42.2291 23.3799V30.8554C42.2291 31.5527 41.9575 32.2085 41.4644 32.7016C40.9714 33.1948 40.3157 33.4664 39.6182 33.4664Z" fill="#7A9DD1"/>
<path d="M38.1807 57.6143C38.1807 57.6143 38.1805 57.6143 38.1804 57.6143C37.6708 57.6144 37.2577 58.0276 37.2578 58.5372L37.2584 61.4078C37.2586 61.9175 37.6716 62.3305 38.1813 62.3305H38.1815C38.6912 62.3304 39.1043 61.9172 39.1041 61.4075L39.1035 58.537C39.1034 58.0273 38.6902 57.6143 38.1807 57.6143Z" fill="#7A9DD1"/>
<path d="M7.74377 12.9613C7.23398 12.9613 6.8209 13.3745 6.8209 13.8842C6.8209 14.2537 7.03858 14.5715 7.35223 14.7189V18.4356H6.99416C6.48436 18.4356 6.07129 18.8488 6.07129 19.3585C6.07129 19.8682 6.48436 20.2814 6.99416 20.2814H9.55616C10.066 20.2814 10.479 19.8682 10.479 19.3585C10.479 18.8488 10.066 18.4356 9.55616 18.4356H9.19797V14.8069H12.1916V22.1408H10.4385C9.92875 22.1408 9.51568 22.554 9.51568 23.0636C9.51568 23.5733 9.92875 23.9865 10.4385 23.9865H15.7904C16.3002 23.9865 16.7133 23.5733 16.7133 23.0636C16.7133 22.554 16.3002 22.1408 15.7904 22.1408H14.0374V14.8069H17.031V18.4356H16.6728C16.163 18.4356 15.75 18.8488 15.75 19.3585C15.75 19.8682 16.163 20.2814 16.6728 20.2814H19.2348C19.7446 20.2814 20.1577 19.8682 20.1577 19.3585C20.1577 18.8488 19.7446 18.4356 19.2348 18.4356H18.8768V14.7189C19.1904 14.5715 19.4081 14.2537 19.4081 13.8842C19.4081 13.3745 18.995 12.9613 18.4852 12.9613H14.0374V12.6402C14.0374 12.1305 13.6243 11.7173 13.1145 11.7173C12.6047 11.7173 12.1916 12.1305 12.1916 12.6402V12.9613H7.74377Z" fill="#7A9DD1"/>
</g>
<defs>
<clipPath id="clip0">
<rect width="63" height="63" fill="white"/>
</clipPath>
</defs>
</svg>
