<svg width="29" height="29" viewBox="0 0 29 29" fill="none" xmlns="http://www.w3.org/2000/svg">
<g clip-path="url(#clip0)">
<path d="M17.1569 14.526L28.4489 3.23366C29.1838 2.49914 29.1838 1.31152 28.4489 0.576999C27.7144 -0.157523 26.5267 -0.157523 25.7922 0.576999L14.4998 11.8694L3.20782 0.576999C2.47295 -0.157523 1.28567 -0.157523 0.55115 0.576999C-0.183717 1.31152 -0.183717 2.49914 0.55115 3.23366L11.8432 14.526L0.55115 25.8184C-0.183717 26.5529 -0.183717 27.7405 0.55115 28.4751C0.917207 28.8415 1.39852 29.0255 1.87948 29.0255C2.36045 29.0255 2.84141 28.8415 3.20782 28.4751L14.4998 17.1827L25.7922 28.4751C26.1586 28.8415 26.6396 29.0255 27.1206 29.0255C27.6015 29.0255 28.0825 28.8415 28.4489 28.4751C29.1838 27.7405 29.1838 26.5529 28.4489 25.8184L17.1569 14.526Z" fill="#0B3068"/>
</g>
<defs>
<clipPath id="clip0">
<rect width="29" height="29" fill="white"/>
</clipPath>
</defs>
</svg>
