<svg width="150" height="150" viewBox="0 0 150 150" fill="none" xmlns="http://www.w3.org/2000/svg">
<circle cx="75" cy="75" r="74.5" fill="#0B3068" stroke="#7A9DD1"/>
<g clip-path="url(#clip0)">
<path d="M105.371 65.363C104.807 64.9364 104.03 64.9403 103.474 65.3692L87.1547 77.8239L76.444 53.6257C75.9354 52.4851 74.0684 52.4851 73.5598 53.6257L62.7239 78.1067L46.5473 65.3832C45.9904 64.9442 45.2072 64.9321 44.6379 65.3544C44.0667 65.776 43.8505 66.5276 44.1067 67.1899L55.3455 96.2245C55.5803 96.8316 56.1637 97.2294 56.8127 97.2294H93.1877C93.8421 97.2294 94.42 96.8335 94.6556 96.2245L105.893 67.1899C106.148 66.5315 105.935 65.7841 105.371 65.363ZM92.1093 94.0795H57.8926L49.1165 71.4099L62.3712 81.8305C62.7535 82.1338 63.2489 82.2365 63.7256 82.126C64.1985 82.0047 64.5889 81.6792 64.7869 81.2316L75.0025 58.1552L85.0816 80.9264C85.2807 81.3673 85.6638 81.6955 86.1316 81.8141C86.6052 81.9312 87.0956 81.8305 87.4829 81.5415L100.948 71.2606L92.1093 94.0795Z" fill="white"/>
</g>
<defs>
<clipPath id="clip0">
<rect width="62" height="62" fill="white" transform="translate(44 44)"/>
</clipPath>
</defs>
</svg>
