<svg width="150" height="150" viewBox="0 0 150 150" fill="none" xmlns="http://www.w3.org/2000/svg">
<circle cx="75" cy="75" r="74.5" fill="#0B3068" stroke="#7A9DD1"/>
<g clip-path="url(#clip0)">
<path d="M101.944 75.2901C101.699 74.7879 101.699 74.212 101.944 73.7099L104.219 69.0557C105.486 66.4643 104.482 63.3756 101.934 62.0237L97.3582 59.5956C96.8644 59.3338 96.526 58.8677 96.4293 58.3174L95.5344 53.2147C95.036 50.3737 92.408 48.4646 89.5526 48.8686L84.4232 49.5942C83.8696 49.6724 83.3222 49.4944 82.9205 49.1058L79.1973 45.504C77.1241 43.4984 73.8764 43.4983 71.8034 45.504L68.08 49.1062C67.6783 49.4948 67.1308 49.6725 66.5773 49.5946L61.4479 48.869C58.5916 48.4647 55.9645 50.3741 55.4662 53.2151L54.5712 58.3175C54.4746 58.8679 54.1361 59.3339 53.6425 59.5959L49.0663 62.0239C46.5184 63.3757 45.5148 66.4646 46.7815 69.0561L49.0564 73.7101C49.3019 74.2123 49.3019 74.7882 49.0564 75.2903L46.7813 79.9444C45.5147 82.5358 46.5183 85.6245 49.0662 86.9764L53.6424 89.4044C54.1361 89.6663 54.4746 90.1324 54.5712 90.6827L55.4662 95.7853C55.9199 98.3716 58.1375 100.185 60.6863 100.185C60.9373 100.185 61.192 100.168 61.4481 100.131L66.5774 99.4058C67.1306 99.3273 67.6784 99.5056 68.0801 99.8941L71.8034 103.496C72.8401 104.499 74.17 105 75.5003 105C76.8302 105 78.1609 104.499 79.1972 103.496L82.9205 99.8941C83.3223 99.5056 83.8698 99.3281 84.4232 99.4058L89.5526 100.131C92.4093 100.535 95.036 98.6262 95.5344 95.7852L96.4295 90.6828C96.5261 90.1324 96.8646 89.6664 97.3582 89.4044L101.934 86.9764C104.482 85.6246 105.486 82.5357 104.219 79.9443L101.944 75.2901ZM100.285 83.8684L95.7091 86.2964C94.2501 87.0707 93.2495 88.4478 92.9642 90.0747L92.0692 95.1773C91.9006 96.1385 91.0119 96.7841 90.0453 96.6477L84.916 95.9221C83.2802 95.6904 81.6616 96.2169 80.4744 97.3653L76.751 100.967C76.0497 101.645 74.9509 101.645 74.2494 100.967L70.5262 97.3651C69.5228 96.3945 68.211 95.8685 66.8417 95.8685C66.5907 95.8685 66.3378 95.8861 66.0845 95.922L60.9552 96.6476C59.9894 96.7841 59.1001 96.1384 58.9314 95.1771L58.0363 90.0745C57.7508 88.4475 56.7503 87.0704 55.2912 86.2963L50.715 83.8683C49.8529 83.4109 49.5133 82.3659 49.9419 81.4891L52.217 76.8349C52.9423 75.3509 52.9423 73.6489 52.217 72.1649L49.9419 67.5107C49.5133 66.6339 49.8529 65.589 50.715 65.1316L55.2912 62.7035C56.7501 61.9292 57.7508 60.5522 58.0361 58.9252L58.9311 53.8227C59.0998 52.8615 59.9884 52.2158 60.9549 52.3523L66.0843 53.0778C67.7195 53.3093 69.3387 52.7831 70.5259 51.6347L74.2493 48.0329C74.9506 47.3545 76.0494 47.3545 76.7509 48.0329L80.4741 51.6347C81.6613 52.7832 83.2803 53.3093 84.9158 53.0778L90.0451 52.3523C91.011 52.2156 91.9004 52.8615 92.0689 53.8227L92.9639 58.9254C93.2494 60.5523 94.2499 61.9295 95.709 62.7035L100.285 65.1316C101.147 65.589 101.487 66.6339 101.058 67.5107L98.7832 72.1648C98.0579 73.6487 98.0579 75.3509 98.7832 76.8348L101.058 81.4889C101.487 82.3659 101.147 83.411 100.285 83.8684Z" fill="white"/>
<path d="M88.3534 61.6466C87.6666 60.9596 86.5526 60.9596 85.8656 61.6466L62.6466 84.8658C61.9596 85.5527 61.9596 86.6665 62.6466 87.3535C62.99 87.697 63.4403 87.8688 63.8904 87.8688C64.3405 87.8688 64.7908 87.6971 65.1342 87.3535L88.3533 64.1344C89.0405 63.4474 89.0405 62.3336 88.3534 61.6466Z" fill="white"/>
<path d="M68.4633 58.668C64.9067 58.668 62.0132 61.5615 62.0132 65.1181C62.0132 68.6747 64.9067 71.5682 68.4633 71.5682C72.0199 71.5682 74.9134 68.6747 74.9134 65.1181C74.9134 61.5615 72.0199 58.668 68.4633 58.668ZM68.4633 68.0499C66.8467 68.0499 65.5315 66.7347 65.5315 65.118C65.5315 63.5014 66.8467 62.1862 68.4633 62.1862C70.0799 62.1862 71.3952 63.5014 71.3952 65.118C71.3951 66.7347 70.0799 68.0499 68.4633 68.0499Z" fill="white"/>
<path d="M82.5365 77.4319C78.98 77.4319 76.0864 80.3254 76.0864 83.882C76.0864 87.4386 78.98 90.3321 82.5365 90.3321C86.0931 90.3321 88.9867 87.4386 88.9867 83.882C88.9867 80.3254 86.0931 77.4319 82.5365 77.4319ZM82.5365 86.8138C80.9199 86.8138 79.6046 85.4986 79.6046 83.882C79.6046 82.2654 80.9198 80.9502 82.5365 80.9502C84.1532 80.9502 85.4683 82.2654 85.4683 83.882C85.4683 85.4986 84.1532 86.8138 82.5365 86.8138Z" fill="white"/>
</g>
<defs>
<clipPath id="clip0">
<rect width="61" height="61" fill="white" transform="translate(45 44)"/>
</clipPath>
</defs>
</svg>
