<svg width="61" height="61" viewBox="0 0 61 61" fill="none" xmlns="http://www.w3.org/2000/svg">
<path d="M30.6249 41.6639C32.7724 41.6639 34.5196 39.9168 34.5196 37.7695C34.5196 35.622 32.7726 33.8748 30.6249 33.8748C28.4775 33.8748 26.7305 35.6218 26.7305 37.7695C26.7306 39.9168 28.4777 41.6639 30.6249 41.6639ZM30.6249 35.662C31.787 35.662 32.7324 36.6074 32.7324 37.7695C32.7324 38.9314 31.787 39.8767 30.6249 39.8767C29.463 39.8767 28.5177 38.9313 28.5177 37.7695C28.5177 36.6075 29.463 35.662 30.6249 35.662Z" fill="#7A9DD1"/>
<path d="M47.9013 12.9086C51.4603 12.9086 54.3558 10.0133 54.3558 6.45443C54.3559 2.89535 51.4603 0 47.9013 0C44.3425 0 41.4473 2.89535 41.4473 6.45431C41.4473 10.0132 44.3426 12.9086 47.9013 12.9086ZM47.9013 1.78723C50.4749 1.78723 52.5685 3.88088 52.5685 6.45431C52.5685 9.02774 50.4749 11.1213 47.9013 11.1213C45.328 11.1213 43.2345 9.02774 43.2345 6.45431C43.2345 3.88088 45.328 1.78723 47.9013 1.78723Z" fill="#7A9DD1"/>
<path d="M57.4641 22.8425C56.9705 22.8425 56.5706 23.2425 56.5706 23.7361V35.9635C56.5706 36.2817 56.3117 36.5406 55.9936 36.5406H53.8133V20.7674C53.8133 20.2738 53.4133 19.8738 52.9197 19.8738C52.4261 19.8738 52.0262 20.2738 52.0262 20.7674V58.6355C52.0262 58.9536 51.7673 59.2125 51.4492 59.2125H49.3725C49.0542 59.2125 48.7953 58.9536 48.7953 58.6355V44.4197C48.7953 43.9262 48.3954 43.5261 47.9018 43.5261C47.4082 43.5261 47.0082 43.9262 47.0082 44.4197V58.6355C47.0082 58.9536 46.7493 59.2125 46.4312 59.2125H44.3545C44.0364 59.2125 43.7775 58.9536 43.7775 58.6355V20.7674C43.7775 20.2738 43.3776 19.8738 42.884 19.8738C42.3904 19.8738 41.9904 20.2738 41.9904 20.7674V36.5407H39.8101C39.4921 36.5407 39.2333 36.2819 39.2331 35.9643V20.7646C39.2331 17.8298 41.6207 15.4423 44.5555 15.4423H51.2486C54.1834 15.4423 56.5709 17.8298 56.5709 20.7646C56.5709 21.2582 56.9709 21.6582 57.4645 21.6582C57.9581 21.6582 58.358 21.2582 58.358 20.7646C58.358 16.8444 55.1686 13.655 51.2484 13.655H44.5549C40.6347 13.655 37.4453 16.8444 37.4453 20.7646V35.9647C37.4459 37.2679 38.5065 38.3279 39.8095 38.3279H41.9898V58.6355C41.9898 59.9392 43.0504 60.9998 44.354 60.9998H46.4308C46.9866 60.9998 47.4973 60.8057 47.9014 60.4834C48.3056 60.8057 48.8163 60.9998 49.3722 60.9998H51.449C52.7526 60.9998 53.8132 59.9393 53.8132 58.6355V38.3278H55.9935C57.2971 38.3278 58.3577 37.2671 58.3577 35.9635V23.7361C58.3578 23.2425 57.9577 22.8425 57.4641 22.8425Z" fill="#7A9DD1"/>
<path d="M11.9323 18.3709C15.4913 18.3709 18.3868 15.4756 18.3868 11.9167C18.3868 8.35775 15.4913 5.4624 11.9323 5.4624C8.3735 5.4624 5.47827 8.35775 5.47827 11.9167C5.47839 15.4756 8.3735 18.3709 11.9323 18.3709ZM11.9323 7.24963C14.5059 7.24963 16.5996 9.34328 16.5996 11.9167C16.5996 14.4901 14.5059 16.5837 11.9323 16.5837C9.35903 16.5837 7.2655 14.4901 7.2655 11.9167C7.26562 9.34328 9.35915 7.24963 11.9323 7.24963Z" fill="#7A9DD1"/>
<path d="M14.8711 19.2097H8.99406C5.4917 19.2097 2.64233 22.0591 2.64233 25.5614V38.9082C2.64269 40.1124 3.62274 41.0921 4.82725 41.0921H4.85429L4.23572 46.722C4.20808 46.9744 4.28897 47.2268 4.45839 47.4158C4.62793 47.605 4.8699 47.7131 5.12391 47.7131H6.63282V58.815C6.63282 60.0197 7.61311 60.9999 8.81774 60.9999H10.6413C11.1247 60.9999 11.5704 60.8402 11.9327 60.5735C12.295 60.8402 12.7406 60.9999 13.2241 60.9999H15.0477C16.2525 60.9999 17.2326 60.0197 17.2326 58.815V53.8808C17.2326 53.3872 16.8327 52.9872 16.3391 52.9872C15.8455 52.9872 15.4455 53.3872 15.4455 53.8808V58.815C15.4455 59.0343 15.2672 59.2127 15.0478 59.2127H13.2243C13.0049 59.2127 12.8265 59.0343 12.8265 58.815V49.2705C12.8265 48.7769 12.4265 48.377 11.9329 48.377C11.4393 48.377 11.0393 48.7769 11.0393 49.2705V58.815C11.0393 59.0343 10.861 59.2127 10.6417 59.2127H8.81762C8.59828 59.2127 8.41993 59.0343 8.41993 58.815V47.7131H15.4452V51.0204C15.4452 51.5139 15.8451 51.914 16.3387 51.914C16.8323 51.914 17.2323 51.5139 17.2323 51.0204V47.7131H18.7411C18.9951 47.7131 19.237 47.605 19.4065 47.4158C19.576 47.2268 19.6569 46.9744 19.6293 46.722L19.0107 41.0921H19.0377C20.2425 41.0921 21.2226 40.1122 21.2226 38.9073V25.5613C21.2226 22.0591 18.3733 19.2097 14.8711 19.2097ZM19.4355 38.9072C19.4354 39.1264 19.2571 39.3048 19.0377 39.3048H18.8143L17.1784 24.4175C17.1244 23.9271 16.6829 23.5744 16.1925 23.6268C15.702 23.6807 15.3481 24.1221 15.4019 24.6126L17.744 45.9258H16.903H16.3388H7.52638H6.79247H6.12111L8.46318 24.6126C8.51703 24.1221 8.16306 23.6807 7.67256 23.6268C7.18111 23.5743 6.74052 23.9271 6.68667 24.4175L5.05076 39.3048H4.82737C4.60815 39.3048 4.4298 39.1265 4.42968 38.9077V25.5613C4.42968 23.0445 6.47734 20.9968 8.99418 20.9968H14.8711C17.3879 20.9968 19.4355 23.0445 19.4355 25.5613V38.9072Z" fill="#7A9DD1"/>
<path d="M37.3971 38.692C36.7576 38.7121 36.1641 38.9801 35.7263 39.4464L32.3938 42.9953H28.944L25.6113 39.4463C24.7072 38.4839 23.1886 38.4361 22.2255 39.34C21.2631 40.244 21.2152 41.7627 22.119 42.7256L25.9828 46.8402V58.6647C25.9828 59.9523 27.0304 60.9998 28.3181 60.9998H33.0195C34.3071 60.9998 35.3545 59.9523 35.3545 58.6647V53.761C35.3545 53.2674 34.9546 52.8674 34.461 52.8674C33.9674 52.8674 33.5674 53.2674 33.5674 53.761V58.6647C33.5674 58.9668 33.3216 59.2126 33.0196 59.2126H31.5203V51.7594C31.5203 51.2658 31.1204 50.8659 30.6268 50.8659C30.1333 50.8659 29.7332 51.2658 29.7332 51.7594V59.2126H28.3182C28.0161 59.2126 27.7702 58.9668 27.7702 58.6647V46.4864C27.7702 46.2592 27.6835 46.0405 27.5281 45.8747L23.4222 41.5024C23.1928 41.2579 23.2049 40.8724 23.4492 40.6429C23.6936 40.4135 24.0792 40.4257 24.3086 40.67L27.9059 44.5008C28.0748 44.6807 28.3105 44.7827 28.5573 44.7827H32.7805C33.0272 44.7827 33.263 44.6806 33.4319 44.5008L37.0292 40.67C37.2587 40.4255 37.6443 40.4136 37.8884 40.6428C38.1329 40.8724 38.1449 41.2579 37.9156 41.5023L33.8095 45.8746C33.6538 46.0403 33.5673 46.2591 33.5673 46.4863V50.7821C33.5673 51.2756 33.9672 51.6757 34.4608 51.6757C34.9544 51.6757 35.3544 51.2756 35.3544 50.7821V46.8401L39.2184 42.7256C40.1223 41.7628 40.0744 40.2442 39.1117 39.3399C38.6456 38.902 38.0372 38.6732 37.3971 38.692Z" fill="#7A9DD1"/>
</svg>
