<svg width="60" height="60" viewBox="0 0 60 60" fill="none" xmlns="http://www.w3.org/2000/svg">
<g clip-path="url(#clip0)">
<path d="M59.5062 7.57274C59.4706 7.53923 52.4228 0.81794 52.4228 0.81794C52.1534 0.559424 51.8747 0.292236 51.3544 0.292236H22.981C22.1522 0.292236 21.4779 0.966416 21.4779 1.79517V6.41036L11.4777 8.12458C10.6762 8.26521 10.1371 9.03231 10.276 9.83306L10.7835 12.7923C7.53307 13.8861 4.19593 15.0137 0.974324 16.1709C0.213074 16.4492 -0.186418 17.2957 0.0852222 18.0615L6.49362 35.8759C6.62253 36.2343 6.96038 36.4576 7.32073 36.4576C7.4194 36.4576 7.51995 36.4408 7.61815 36.4054C8.07495 36.2411 8.31202 35.7377 8.14772 35.2809L1.83413 17.73C4.86928 16.6433 8.01249 15.5797 11.0843 14.5458L14.1044 32.1526L17.5794 52.4298C17.7049 53.1456 18.3341 53.6549 19.0443 53.6549C19.1247 53.6549 19.2062 53.6483 19.288 53.6348L28.7001 52.0196L36.0548 50.7589L24.9933 54.7347L16.2705 57.871L9.49608 39.0286C9.3319 38.5718 8.82858 38.3347 8.37167 38.4989C7.91487 38.6631 7.6778 39.1665 7.84198 39.6233L14.7124 58.7335C14.9322 59.3345 15.5015 59.7081 16.1032 59.7081C16.2695 59.7081 16.4384 59.6795 16.6029 59.6194L25.5878 56.389L45.9894 49.0561L49.887 48.388H58.4969C59.3256 48.388 59.9999 47.7123 59.9999 46.8817V8.5631C60 8.03704 59.7146 7.76868 59.5062 7.57274ZM57.1776 7.78087H52.7795L52.6705 7.78134C52.4599 7.78274 51.9669 7.78638 51.8419 7.66216C51.8131 7.63345 51.7793 7.53759 51.7793 7.35958L51.7691 2.62345L57.1776 7.78087ZM58.2422 46.6299H23.2357V29.501C23.2357 29.0156 22.8422 28.6221 22.3568 28.6221C21.8714 28.6221 21.4779 29.0156 21.4779 29.501V46.8814C21.4779 47.7119 22.1522 48.3877 22.981 48.3877H39.4824L28.4029 50.2869L19.2644 51.8552L15.8369 31.8554L12.0553 9.80892L21.4778 8.19372V25.4229C21.4778 25.9083 21.8713 26.3018 22.3567 26.3018C22.8421 26.3018 23.2356 25.9083 23.2356 25.4229V2.04993H50.01L50.0215 7.36157C50.0215 8.0054 50.2173 8.52618 50.6035 8.90962C51.1968 9.49872 52.0355 9.53974 52.5562 9.53974C52.6009 9.53974 52.6433 9.53938 52.6831 9.53915L58.2422 9.5388V46.6299Z" fill="#7A9DD1"/>
<path d="M27.4724 13.9395C27.4724 14.4248 27.8659 14.8184 28.3513 14.8184H53.4805C53.9659 14.8184 54.3594 14.4248 54.3594 13.9395C54.3594 13.4541 53.9659 13.0605 53.4805 13.0605H28.3513C27.8659 13.0605 27.4724 13.4541 27.4724 13.9395Z" fill="#7A9DD1"/>
<path d="M53.4805 19.3044H28.3513C27.8659 19.3044 27.4724 19.698 27.4724 20.1833C27.4724 20.6687 27.8659 21.0623 28.3513 21.0623H53.4805C53.9659 21.0623 54.3594 20.6687 54.3594 20.1833C54.3594 19.698 53.9659 19.3044 53.4805 19.3044Z" fill="#7A9DD1"/>
<path d="M53.4805 25.5486H28.3513C27.8659 25.5486 27.4724 25.9421 27.4724 26.4275C27.4724 26.9129 27.8659 27.3064 28.3513 27.3064H53.4805C53.9659 27.3064 54.3594 26.9129 54.3594 26.4275C54.3594 25.9421 53.9659 25.5486 53.4805 25.5486Z" fill="#7A9DD1"/>
<path d="M53.4805 31.7925H28.3513C27.8659 31.7925 27.4724 32.186 27.4724 32.6714C27.4724 33.1568 27.8659 33.5503 28.3513 33.5503H53.4805C53.9659 33.5503 54.3594 33.1568 54.3594 32.6714C54.3594 32.186 53.9659 31.7925 53.4805 31.7925Z" fill="#7A9DD1"/>
<path d="M53.4805 38.0366H28.3513C27.8659 38.0366 27.4724 38.4301 27.4724 38.9155C27.4724 39.4009 27.8659 39.7944 28.3513 39.7944H53.4805C53.9659 39.7944 54.3594 39.4009 54.3594 38.9155C54.3594 38.4301 53.9659 38.0366 53.4805 38.0366Z" fill="#7A9DD1"/>
</g>
<defs>
<clipPath id="clip0">
<rect width="60" height="60" fill="white"/>
</clipPath>
</defs>
</svg>
