<svg width="150" height="150" viewBox="0 0 150 150" fill="none" xmlns="http://www.w3.org/2000/svg">
<circle cx="75" cy="75" r="74.5" fill="#0B3068" stroke="#7A9DD1"/>
<path d="M96.5436 56.9782L83.9349 44.3694C83.6991 44.1324 83.3788 44 83.0434 44H52.7826C50.6971 44 49 45.6972 49 47.7826V98.2173C49 100.303 50.6972 102 52.7826 102H93.1304C95.2147 102 96.9117 100.304 96.913 98.2198C96.913 98.2186 96.913 98.2186 96.913 98.2173V57.8696C96.913 57.5354 96.7807 57.2139 96.5436 56.9782ZM59.0869 59.1304V54.0869H79.2608V59.1304H59.0869ZM94.3912 98.2174C94.3912 98.9134 93.8264 99.4782 93.1304 99.4782H52.7826C52.0878 99.4782 51.5218 98.9134 51.5218 98.2174V47.7826C51.5218 47.0878 52.0879 46.5218 52.7826 46.5218H79.2608V51.5653H57.8261C57.1301 51.5653 56.5653 52.1301 56.5653 52.8261V60.3913C56.5653 61.0873 57.1301 61.6522 57.8261 61.6522H80.5218H94.3913V98.2174H94.3912ZM94.3912 59.1304H81.7826V46.5218H82.5214L94.3912 58.3916V59.1304Z" fill="white"/>
<path d="M57.8262 69.2172H72.9567C73.6527 69.2172 74.2175 68.6524 74.2175 67.9564C74.2175 67.2604 73.6527 66.6956 72.9567 66.6956H57.8262C57.1302 66.6956 56.5654 67.2604 56.5654 67.9564C56.5654 68.6524 57.1302 69.2172 57.8262 69.2172Z" fill="white"/>
<path d="M57.8262 84.3478H72.9567C73.6527 84.3478 74.2175 83.7842 74.2175 83.087C74.2175 82.3897 73.6527 81.8262 72.9567 81.8262H57.8262C57.1302 81.8262 56.5654 82.3897 56.5654 83.087C56.5653 83.7842 57.1302 84.3478 57.8262 84.3478Z" fill="white"/>
<path d="M56.5654 75.5218C56.5654 76.2191 57.1302 76.7826 57.8263 76.7826H88.0871C88.7843 76.7826 89.3479 76.2191 89.3479 75.5218C89.3479 74.8246 88.7843 74.261 88.0871 74.261H57.8263C57.1304 74.2609 56.5654 74.8246 56.5654 75.5218Z" fill="white"/>
<path d="M88.0871 89.3914H57.8263C57.1302 89.3914 56.5654 89.9549 56.5654 90.6522C56.5654 91.3494 57.1302 91.913 57.8263 91.913H88.0871C88.7843 91.913 89.3479 91.3494 89.3479 90.6522C89.3479 89.9549 88.7843 89.3914 88.0871 89.3914Z" fill="white"/>
</svg>
