<svg width="57" height="57" viewBox="0 0 57 57" fill="none" xmlns="http://www.w3.org/2000/svg">
<g clip-path="url(#clip0)">
<path d="M46.1845 29.925L36.953 19.888L46.1845 9.91306C46.5122 9.58576 46.5876 9.08294 46.3704 8.67393C46.1802 8.24013 45.7239 7.98671 45.2552 8.05442H15.4542V7.18707C16.8705 6.60468 17.8154 5.2479 17.8704 3.71752C17.8704 1.66427 16.2062 2.57806e-08 14.153 2.57806e-08C12.1342 -0.000237152 10.4974 1.63605 10.4971 3.6549C10.4971 3.67577 10.4972 3.69653 10.4975 3.7174C10.5787 5.25751 11.5453 6.61072 12.9758 7.18695V55.7609C12.9758 56.4452 13.5306 57 14.2149 57C14.8993 57 15.4541 56.4452 15.4541 55.7609V32.2173H45.2552C45.7594 32.1585 46.1892 31.8242 46.3704 31.35C46.6002 30.8807 46.527 30.3196 46.1845 29.925ZM14.153 4.95653C13.4687 4.95653 12.9139 4.40177 12.9139 3.7174C12.9139 3.03302 13.4687 2.47827 14.153 2.47827C14.8374 2.47827 15.3922 3.03302 15.3922 3.7174C15.3922 4.40177 14.8374 4.95653 14.153 4.95653ZM15.4542 29.7392V10.5326H42.4673L34.413 19.1445C33.9712 19.6384 33.9712 20.3854 34.413 20.8793L42.4673 29.7391H15.4542V29.7392Z" fill="#7A9DD1"/>
</g>
<defs>
<clipPath id="clip0">
<rect width="57" height="57" fill="white"/>
</clipPath>
</defs>
</svg>
