<svg width="57" height="57" viewBox="0 0 57 57" fill="none" xmlns="http://www.w3.org/2000/svg">
<g clip-path="url(#clip0)">
<path d="M56.8993 23.4536C56.8993 18.7002 55.0483 14.2314 51.6872 10.8703C47.802 6.98506 42.4665 5.13946 37.0147 5.78227C36.7276 5.22808 36.2678 4.77097 35.6938 4.49164L31.0149 2.21498C30.6173 2.0215 30.1735 1.91919 29.7318 1.91919C28.948 1.91919 28.211 2.22434 27.6568 2.77853L25.1173 5.31803L24.2235 4.42429C23.2847 3.48546 21.8629 3.3178 20.7509 3.91997L17.6912 0.860455C17.6909 0.860121 17.6906 0.859676 17.6902 0.859342C17.136 0.30515 16.3994 0 15.6156 0C14.8319 0 14.0952 0.30515 13.5411 0.859342L10.5728 3.82757C10.0186 4.38176 9.71346 5.11842 9.71346 5.90217C9.71346 6.39903 9.83648 6.87674 10.0675 7.30123L7.4004 9.96832C6.9759 9.73743 6.49819 9.61441 6.00134 9.61441C5.2177 9.61441 4.48093 9.91956 3.92674 10.4736L0.958508 13.4419C-0.185388 14.5858 -0.185388 16.4471 0.958508 17.591L3.96982 20.6023C3.64129 21.0844 3.46417 21.6532 3.46417 22.2495C3.46417 23.0332 3.76932 23.7699 4.32351 24.324L5.21725 25.2177L2.67775 27.7572C1.79347 28.6414 1.56692 29.991 2.11409 31.1155L5.11383 37.2803C5.40551 37.8798 5.55914 38.5351 5.55814 39.1757C5.55046 43.9403 7.40118 48.4194 10.7695 51.7878C14.1307 55.1489 18.5996 57 23.353 57C28.1065 57 32.5752 55.1489 35.9365 51.7878C38.8035 48.9207 40.6029 45.1595 41.042 41.1443C45.0625 40.7116 48.7873 38.937 51.6872 36.037C55.0483 32.6759 56.8993 28.2071 56.8993 23.4536ZM36.4846 9.20428C36.9666 8.72234 37.2589 8.09099 37.3271 7.42692C42.2263 6.88453 47.0135 8.55835 50.5062 12.0512C53.5519 15.0969 55.2294 19.1464 55.2294 23.4537C55.2294 26.8312 54.1977 30.0499 52.284 32.7507C52.1425 32.4379 51.9439 32.1449 51.6872 31.8881C51.308 31.5089 50.8434 31.2465 50.3368 31.1184C53.6178 26.3127 53.5159 19.8038 49.818 15.0793C49.5336 14.7161 49.0088 14.6521 48.6458 14.9364C48.2826 15.2207 48.2187 15.7455 48.503 16.1085C52.2112 20.8461 51.7964 27.6297 47.5381 31.8879C45.6713 33.7547 43.2898 34.9244 40.7097 35.2684C39.9707 31.992 38.33 29.0144 35.9365 26.621C33.5442 24.2289 30.5657 22.5875 27.2899 21.8483C27.6266 19.3488 28.7526 16.9363 30.6695 15.0194C34.9279 10.7611 41.7119 10.3464 46.4494 14.0548C46.8125 14.3392 47.3373 14.2752 47.6216 13.912C47.9058 13.5489 47.8419 13.0241 47.4787 12.7398C43.9283 9.96064 39.37 9.21251 35.2842 10.4047L36.4846 9.20428ZM36.2969 35.0458C35.6408 32.9964 34.4969 31.118 32.9682 29.5893C31.4403 28.0613 29.5628 26.9177 27.5145 26.2615C27.2996 25.368 27.1892 24.4544 27.1826 23.5402C30.047 24.2369 32.6517 25.698 34.7556 27.8019C36.8606 29.9067 38.3205 32.5102 39.017 35.3745C38.0888 35.3681 37.1777 35.2565 36.2969 35.0458ZM34.2466 34.3517C32.9294 33.7656 31.7182 32.9368 30.6695 31.8879C29.6071 30.8254 28.7882 29.6105 28.2111 28.3132C29.5371 28.9042 30.7535 29.7364 31.7874 30.7702C32.8225 31.8053 33.6553 33.0236 34.2466 34.3517ZM28.8374 3.95927C29.0763 3.72047 29.3938 3.589 29.7317 3.589C29.9244 3.589 30.1103 3.63186 30.2842 3.71647L34.963 5.99313C35.3353 6.17415 35.5879 6.51225 35.6565 6.92049C35.7249 7.32873 35.5964 7.73074 35.3037 8.02342L29.4886 13.8385C24.1869 19.1403 24.1869 27.7669 29.4886 33.0687C32.0532 35.6334 35.4671 37.0457 39.1025 37.0454H39.1039C42.7401 37.0451 46.1547 35.6328 48.7188 33.0687C48.9575 32.8299 49.2749 32.6985 49.6124 32.6985C49.95 32.6985 50.2675 32.83 50.5061 33.0687C50.9989 33.5614 50.9989 34.3633 50.5061 34.8562C47.4605 37.9019 43.4109 39.5793 39.1035 39.5793C34.7961 39.5793 30.7468 37.9019 27.701 34.8562C25.3551 32.5103 23.8226 29.5694 23.2417 26.3737C23.2377 26.3432 23.2323 26.3134 23.2252 26.2841C23.061 25.3505 22.9772 24.3957 22.9788 23.4277C22.9802 22.5346 22.7684 21.6255 22.3661 20.7989L19.3664 14.6341C19.1307 14.1497 19.2282 13.5683 19.6092 13.1874L28.8374 3.95927ZM9.36634 21.0687L8.4726 20.175C7.60847 19.3109 6.33499 19.1 5.27058 19.5414L4.01246 18.2833C4.41981 18.1395 4.79309 17.9055 5.10759 17.591L8.07594 14.6226C9.01477 13.6838 9.18243 12.2621 8.58025 11.15L11.2483 8.48187C11.6728 8.71287 12.1507 8.83589 12.6474 8.83589C13.431 8.83589 14.1678 8.53074 14.7219 7.97655L17.6901 5.00832C18.01 4.68847 18.2402 4.31252 18.3812 3.91185L19.569 5.09961C19.338 5.5241 19.215 6.00181 19.215 6.49867C19.215 7.28242 19.5201 8.01908 20.0743 8.57316L20.9681 9.4669L18.4286 12.0064C17.5443 12.8906 17.3177 14.2402 17.8649 15.3647L20.3591 20.4906C20.2282 20.3974 20.0896 20.3136 19.9428 20.2422L15.2639 17.9656C14.1394 17.4185 12.7899 17.645 11.9057 18.5291L9.36634 21.0687ZM20.7338 24.9551C20.9814 24.7075 21.1789 24.4204 21.3221 24.1099C21.3419 24.6601 21.3862 25.2058 21.4551 25.7459C20.8017 25.837 20.1592 25.9747 19.5315 26.1574L20.7338 24.9551ZM22.1489 5.23487C22.4865 5.23487 22.8039 5.36635 23.0427 5.60504L23.9364 6.49878L22.1489 8.28626L21.2552 7.39241C21.0164 7.15372 20.885 6.83633 20.885 6.49878C20.885 6.16123 21.0165 5.84384 21.2552 5.60504C21.4939 5.36624 21.8113 5.23487 22.1489 5.23487ZM11.7537 5.00843L14.722 2.04009C14.9607 1.80129 15.2781 1.66992 15.6156 1.66992C15.9532 1.66992 16.2706 1.8014 16.5094 2.04009C16.7482 2.27878 16.8795 2.59628 16.8795 2.93383C16.8795 3.27138 16.7481 3.58877 16.5094 3.82757L13.5411 6.7958C13.3023 7.0346 12.9849 7.16597 12.6474 7.16597C12.3097 7.16597 11.9923 7.03449 11.7537 6.79569C11.5149 6.557 11.3835 6.23961 11.3835 5.90206C11.3835 5.56451 11.5149 5.24712 11.7537 5.00843ZM2.13937 14.6227L5.10759 11.6544C5.34639 11.4157 5.66379 11.2842 6.00134 11.2842C6.33888 11.2842 6.65628 11.4157 6.89508 11.6545C7.13388 11.8932 7.26524 12.2106 7.26524 12.5481C7.26524 12.8857 7.13377 13.2031 6.89508 13.4419L3.92674 16.4102C3.68805 16.6489 3.37065 16.7804 3.033 16.7804C2.69534 16.7804 2.37794 16.6489 2.13925 16.4102C1.90046 16.1714 1.76909 15.854 1.76909 15.5165C1.7692 15.1788 1.90057 14.8614 2.13937 14.6227ZM5.50437 23.1432C5.26557 22.9045 5.1342 22.5871 5.1342 22.2496C5.1342 21.912 5.26568 21.5947 5.50437 21.3559C5.74306 21.1171 6.06056 20.9857 6.39811 20.9857C6.73566 20.9857 7.05305 21.1172 7.29185 21.3559L8.18559 22.2496L6.39811 24.0371L5.50437 23.1432ZM11.9504 50.607C8.89821 47.5547 7.22116 43.496 7.22817 39.1785C7.22962 38.2853 7.01776 37.3763 6.61553 36.5497L3.6158 30.3849C3.38012 29.9005 3.47764 29.3192 3.8586 28.9382L13.0867 19.7101C13.4676 19.3291 14.049 19.2315 14.5334 19.4674L19.2123 21.7441C19.5846 21.9251 19.8373 22.2632 19.9058 22.6714C19.9742 23.0797 19.8457 23.4817 19.553 23.7743L14.836 28.4913C14.5099 28.8174 14.5099 29.3461 14.836 29.6721C15.0159 29.852 15.2576 29.9321 15.4928 29.9134C15.5209 29.9163 15.5491 29.9181 15.5772 29.9181C15.7549 29.9181 15.9341 29.8615 16.0858 29.7448C17.7363 28.4747 19.6797 27.6699 21.7437 27.3921C22.4738 30.6414 24.1075 33.6241 26.5203 36.0369C28.9325 38.4491 31.9152 40.0832 35.1641 40.8139C34.8147 43.3914 33.6326 45.7933 31.7873 47.6386C27.1368 52.2893 19.5694 52.2893 14.9187 47.6386C10.6604 43.3803 10.2456 36.5965 13.9541 31.859C14.2383 31.4958 14.1744 30.971 13.8112 30.6868C13.4482 30.4026 12.9234 30.4665 12.6391 30.8297C8.41092 36.2311 8.8834 43.9649 13.7379 48.8195C16.389 51.4707 19.8705 52.7961 23.3529 52.7958C26.8346 52.7956 30.3175 51.4701 32.968 48.8195C33.2067 48.5807 33.5241 48.4493 33.8616 48.4493C34.1992 48.4493 34.5167 48.5808 34.7553 48.8195C35.2481 49.3122 35.2481 50.1141 34.7553 50.607C31.7099 53.6527 27.6603 55.3301 23.353 55.3301C19.0458 55.3301 14.9962 53.6527 11.9504 50.607ZM36.5312 48.4966C36.3898 48.1856 36.1918 47.8942 35.9363 47.6388C35.5565 47.2589 35.0909 46.9962 34.5832 46.8684C35.7541 45.1501 36.5207 43.1776 36.8121 41.1031C37.5661 41.1994 38.331 41.2492 39.1036 41.2492C39.1855 41.2492 39.2671 41.2473 39.3487 41.2462C39.0154 43.8636 38.0427 46.3529 36.5312 48.4966Z" fill="#7A9DD1"/>
</g>
<defs>
<clipPath id="clip0">
<rect width="57" height="57" fill="white"/>
</clipPath>
</defs>
</svg>
