<svg width="63" height="59" viewBox="0 0 63 59" fill="none" xmlns="http://www.w3.org/2000/svg">
<g clip-path="url(#clip0)">
<path d="M45.9375 58.9998C36.3694 58.9998 28.875 55.2189 28.875 50.3957V43.0207C28.875 42.3422 29.463 41.7915 30.1875 41.7915C30.912 41.7915 31.5 42.3422 31.5 43.0207V50.3957C31.5 53.3039 37.4299 56.5415 45.9375 56.5415C54.4451 56.5415 60.375 53.3039 60.375 50.3957V43.0207C60.375 42.3422 60.963 41.7915 61.6875 41.7915C62.412 41.7915 63 42.3422 63 43.0207V50.3957C63 55.2189 55.5056 58.9998 45.9375 58.9998Z" fill="#7A9DD1"/>
<path d="M45.9375 51.6248C36.3694 51.6248 28.875 47.8439 28.875 43.0207C28.875 38.1974 36.3694 34.4165 45.9375 34.4165C55.5056 34.4165 63 38.1974 63 43.0207C63 47.8439 55.5056 51.6248 45.9375 51.6248ZM45.9375 36.8748C37.4299 36.8748 31.5 40.1125 31.5 43.0207C31.5 45.9289 37.4299 49.1665 45.9375 49.1665C54.4451 49.1665 60.375 45.9289 60.375 43.0207C60.375 40.1125 54.4451 36.8748 45.9375 36.8748Z" fill="#7A9DD1"/>
<path d="M22.3125 49.1667H13.125C10.2296 49.1667 7.875 46.9615 7.875 44.25V27.0417H2.625C1.17862 27.0417 0 25.9379 0 24.5833C0 23.895 0.32025 23.2116 0.853125 22.7617L26.67 0.329408C27.1714 -0.108175 27.951 -0.108175 28.455 0.329408L36.75 7.53233V3.68749C36.75 3.00899 37.338 2.45832 38.0625 2.45832H45.9375C46.662 2.45832 47.25 3.00899 47.25 3.68749V16.6478L54.285 22.7715C54.8048 23.2116 55.125 23.895 55.125 24.5833C55.125 25.9379 53.9464 27.0417 52.5 27.0417H47.25V28.2708C47.25 28.9493 46.662 29.5 45.9375 29.5C45.213 29.5 44.625 28.9493 44.625 28.2708V25.8125C44.625 25.134 45.213 24.5833 45.9375 24.5833H52.5L45.045 18.0835C44.7772 17.8524 44.625 17.5254 44.625 17.1837V4.91666H39.375V10.3496C39.375 10.8388 39.0653 11.2813 38.5875 11.4755C38.1071 11.6672 37.5506 11.5812 37.17 11.2493L27.5625 2.90574L2.625 24.576L9.1875 24.5833C9.912 24.5833 10.5 25.134 10.5 25.8125V44.25C10.5 45.6045 11.6786 46.7083 13.125 46.7083H22.3125C23.037 46.7083 23.625 47.259 23.625 47.9375C23.625 48.616 23.037 49.1667 22.3125 49.1667Z" fill="#7A9DD1"/>
</g>
<defs>
<clipPath id="clip0">
<rect width="63" height="59" fill="white"/>
</clipPath>
</defs>
</svg>
