<svg width="63" height="63" viewBox="0 0 63 63" fill="none" xmlns="http://www.w3.org/2000/svg">
<g clip-path="url(#clip0)">
<path d="M60.0355 55.556H59.349C59.0427 55.0805 58.7742 54.5728 58.554 54.0407C58.3589 53.5697 57.8191 53.3461 57.3482 53.541C56.8773 53.7361 56.6536 54.2759 56.8485 54.7468C56.9626 55.0224 57.0902 55.2913 57.2245 55.556H21.023C20.7442 55.556 20.4747 55.5955 20.2187 55.6678C19.6417 54.6896 18.8623 52.8706 18.8623 50.1735C18.8623 49.7711 18.8801 49.3744 18.9148 48.9857H36.5963C37.1061 48.9857 37.5192 48.5725 37.5192 48.0628C37.5192 47.5531 37.1061 47.1399 36.5963 47.1399H19.6921L21.8606 44.7909H57.2197C56.84 45.5364 56.5424 46.3231 56.3313 47.1399H44.2007C43.6909 47.1399 43.2779 47.5531 43.2779 48.0628C43.2779 48.5725 43.6909 48.9857 44.2007 48.9857H56.0083C55.9722 49.3607 55.9512 49.7393 55.9496 50.1213C55.9474 50.631 56.3589 51.0459 56.8687 51.0481H56.8726C57.3805 51.0481 57.7932 50.6375 57.7954 50.1292C57.8035 48.1913 58.3406 46.35 59.3473 44.7909H60.0356C61.6703 44.7909 63.0003 43.4609 63.0003 41.8262C63.0003 40.1915 61.6703 38.8615 60.0356 38.8615H48.4992L59.0688 28.2917C59.669 27.6916 59.9994 26.8938 59.9994 26.0451C59.9994 25.1964 59.6689 24.3986 59.0689 23.7987L58.8366 23.5663C58.2365 22.9663 57.4386 22.6357 56.59 22.6357C55.816 22.6357 55.0847 22.9114 54.5068 23.4151L52.8732 21.7815L53.4294 21.2253C54.1759 20.4789 54.4002 19.3652 54.0007 18.388L53.249 16.5492C52.9897 15.915 52.435 15.4552 51.7643 15.3172L50.4807 14.0337C50.1202 13.6733 49.536 13.6733 49.1756 14.0337C48.8152 14.3941 48.8152 14.9785 49.1756 15.3388L49.8071 15.9703L35.2627 30.5145L30.9854 26.2373L45.5299 11.693L46.096 12.2591C46.2762 12.4394 46.5124 12.5295 46.7486 12.5295C46.9847 12.5295 47.2209 12.4394 47.4012 12.2591C47.7616 11.8987 47.7616 11.3144 47.4011 10.9541L46.1829 9.73588C46.045 9.06515 45.5851 8.51044 44.9509 8.25106C44.9508 8.25106 44.9508 8.25106 44.9508 8.25106L43.1121 7.49935C42.1353 7.10006 41.0214 7.32401 40.2749 8.07054L39.7187 8.62672L38.0848 6.99313C38.5885 6.41517 38.8641 5.68389 38.8641 4.90992C38.8641 4.06125 38.5336 3.26341 37.9336 2.66354L37.7013 2.4311C37.1012 1.83112 36.3033 1.50049 35.4547 1.50049C34.606 1.50049 33.8082 1.831 33.208 2.4311L21.7233 13.9158C21.1232 14.516 20.7927 15.3138 20.7927 16.1625C20.7927 17.0111 21.1232 17.809 21.7233 18.409L21.9554 18.6412C22.5555 19.2413 23.3533 19.5718 24.202 19.5718C24.9761 19.5718 25.7073 19.296 26.2853 18.7924L27.9191 20.4262L27.3627 20.9825C26.6163 21.7289 26.3921 22.8426 26.7916 23.8197L27.5433 25.6584C27.7998 26.2859 28.3457 26.7423 29.0069 26.8854L24.3796 32.4052C23.2374 31.9338 21.8723 32.1611 20.9456 33.0879C20.3505 33.6831 20.0227 34.4744 20.0227 35.3161C20.0227 35.6929 20.0889 36.0593 20.2147 36.4027L18.1161 38.34C17.7417 38.6858 17.7183 39.2695 18.0641 39.6441C18.246 39.8412 18.4938 39.941 18.7425 39.941C18.9663 39.941 19.1907 39.86 19.3682 39.6962L21.3074 37.9061L23.5936 40.1924L6.40905 58.8078C5.91895 59.3386 5.25116 59.639 4.52875 59.6535C3.80522 59.6674 3.1271 59.3946 2.6162 58.8836C2.10531 58.3726 1.83189 57.6934 1.84629 56.971C1.86068 56.2486 2.16105 55.5808 2.692 55.0907L16.1717 42.6471C16.5462 42.3013 16.5695 41.7174 16.2238 41.343C15.8783 40.9686 15.2944 40.9451 14.9197 41.291L1.43998 53.7346C0.536559 54.5686 0.0255381 55.7049 0.000928403 56.9341C-0.0236813 58.1634 0.441688 59.3193 1.31103 60.1886C2.15859 61.0363 3.27833 61.4997 4.47301 61.4997C4.50377 61.4997 4.53465 61.4995 4.56554 61.4988C5.79479 61.4742 6.93115 60.9632 7.76505 60.0598L13.2961 54.0682C13.7471 55.6143 14.3833 56.6746 14.7798 57.232C15.18 57.7947 15.8342 58.1306 16.5299 58.1306H18.0846C18.0678 58.2584 18.0582 58.3884 18.0582 58.5207C18.0582 60.1554 19.3882 61.4854 21.0229 61.4854H60.0355C61.6702 61.4854 63.0002 60.1554 63.0002 58.5207C63.0001 56.886 61.6702 55.556 60.0355 55.556ZM61.1544 41.8262C61.1544 42.4432 60.6524 42.9452 60.0353 42.9452H23.5645L25.0985 41.2834C25.4482 41.4112 25.816 41.4758 26.1839 41.4758C26.9204 41.4758 27.6565 41.219 28.2465 40.7072H60.0355C60.6524 40.7072 61.1544 41.2092 61.1544 41.8262ZM33.3131 31.1755L27.9695 35.6553L25.8448 33.5308L30.3246 28.187L33.3131 31.1755ZM29.2872 38.8615C29.3869 38.2788 29.323 37.6736 29.0948 37.1203L34.6145 32.493C34.7577 33.1541 35.2141 33.7001 35.8415 33.9566L37.6804 34.7083C38.0019 34.8398 38.3382 34.9036 38.6714 34.9036C39.3506 34.9036 40.0168 34.6378 40.5175 34.1372L41.0738 33.5809L42.7075 35.2146C41.8133 36.2425 41.6909 37.7122 42.3402 38.8614H29.2872V38.8615ZM56.5901 24.4815C56.9458 24.4815 57.28 24.6201 57.5314 24.8713L57.7637 25.1038C58.0153 25.3552 58.1537 25.6896 58.1537 26.0451C58.1537 26.4007 58.0153 26.735 57.7636 26.9866L46.2788 38.4714C46.0274 38.7228 45.6929 38.8614 45.3374 38.8614C44.9819 38.8614 44.6475 38.7229 44.3961 38.4714L44.1639 38.2392C43.6448 37.7201 43.6448 36.8755 44.1639 36.3563L55.6488 24.8715C55.9001 24.62 56.2345 24.4815 56.5901 24.4815ZM53.1956 24.7142L44.0065 33.9032L42.379 32.2758L51.568 23.0867L53.1956 24.7142ZM36.4729 31.9146L51.2069 17.1807C51.2536 17.1339 51.3046 17.1204 51.3479 17.1204C51.3637 17.1204 51.3785 17.1222 51.3916 17.1248C51.4404 17.1347 51.5061 17.164 51.5403 17.2479L52.292 19.0867C52.4094 19.3738 52.3436 19.7008 52.1242 19.9201L39.2123 32.8322C38.9933 33.0514 38.666 33.1173 38.3789 32.9999L36.5402 32.2482C36.4563 32.214 36.427 32.1484 36.4172 32.0995C36.4073 32.0505 36.4089 31.9786 36.4729 31.9146ZM24.2022 17.7263C23.8466 17.7263 23.5123 17.5879 23.2609 17.3363L23.0287 17.1042C22.7772 16.8528 22.6388 16.5184 22.6388 16.1628C22.6388 15.8071 22.7772 15.4729 23.0287 15.2214L34.5136 3.73653C34.765 3.48502 35.0994 3.34659 35.4549 3.34659C35.8106 3.34659 36.1448 3.48514 36.3962 3.7364L36.6286 3.96884C36.8801 4.22023 37.0185 4.55468 37.0185 4.91029C37.0185 5.2659 36.8801 5.60022 36.6284 5.85173L25.1437 17.3366C24.8922 17.5877 24.5579 17.7263 24.2022 17.7263ZM27.5967 17.4936L36.7858 8.30446L38.4134 9.93202L29.2242 19.1212L27.5967 17.4936ZM28.6679 22.2876L41.5799 9.3756C41.7269 9.22855 41.9226 9.15042 42.1222 9.15042C42.2201 9.15042 42.3189 9.16924 42.4134 9.20788L44.2522 9.95959C44.3359 9.99379 44.3652 10.0594 44.3751 10.1084C44.3849 10.1573 44.3832 10.2291 44.3192 10.293L29.5854 25.027C29.5214 25.091 29.4497 25.0926 29.4006 25.0829C29.3517 25.073 29.2861 25.0437 29.2519 24.9598L28.5001 23.121C28.3828 22.834 28.4487 22.507 28.6679 22.2876ZM21.8685 35.3161C21.8685 34.9675 22.0044 34.6396 22.2508 34.3931C22.7599 33.8842 23.5879 33.8842 24.0969 34.3931L27.1068 37.403C27.6159 37.912 27.6159 38.7402 27.1068 39.2491C26.5978 39.758 25.7696 39.758 25.2607 39.2491L22.2509 36.2392C22.0044 35.9926 21.8685 35.6648 21.8685 35.3161ZM16.2841 56.1622C15.8746 55.5865 15.1515 54.3479 14.806 52.4328L17.0182 50.0365C17.0178 50.0822 17.0167 50.1277 17.0167 50.1735C17.0167 53.0191 17.7888 55.0606 18.4481 56.2849H16.5302C16.4306 56.2849 16.3387 56.2391 16.2841 56.1622ZM60.0355 59.6397H21.023C20.4061 59.6397 19.904 59.1377 19.904 58.5207C19.904 57.9036 20.4061 57.4017 21.023 57.4017H60.0355C60.6526 57.4017 61.1545 57.9037 61.1545 58.5207C61.1543 59.1378 60.6524 59.6397 60.0355 59.6397Z" fill="#7A9DD1"/>
<path d="M25.8191 51.332C25.3094 51.332 24.8962 51.7452 24.8962 52.2549C24.8962 52.7646 25.3094 53.1778 25.8191 53.1778H47.319C47.8288 53.1778 48.2419 52.7646 48.2419 52.2549C48.2419 51.7452 47.8288 51.332 47.319 51.332H25.8191Z" fill="#7A9DD1"/>
</g>
<defs>
<clipPath id="clip0">
<rect width="63" height="63" fill="white"/>
</clipPath>
</defs>
</svg>
