<svg width="150" height="150" viewBox="0 0 150 150" fill="none" xmlns="http://www.w3.org/2000/svg">
<circle cx="75" cy="75" r="74.5" fill="#0B3068" stroke="#7A9DD1"/>
<path d="M98.1572 78.9705C98.1572 76.1771 95.9432 73.9045 93.2218 73.9045H92.1893C91.663 73.9045 91.2362 74.3425 91.2362 74.8828C91.2362 75.4231 91.663 75.8611 92.1893 75.8611H93.2218C94.8922 75.8611 96.2511 77.2559 96.2511 78.9705C96.2511 80.1557 95.6084 81.222 94.5736 81.753C94.2748 81.9063 94.076 82.209 94.0497 82.5509C94.0232 82.8926 94.1732 83.2237 94.4447 83.4234C95.1649 83.9527 95.5946 84.8097 95.5946 85.716C95.5946 86.8725 94.888 87.9295 93.8362 88.3459C93.528 88.468 93.3035 88.7449 93.2425 89.0781C93.1816 89.4112 93.2929 89.7529 93.5369 89.9813C94.0523 90.4639 94.348 91.151 94.348 91.8663C94.348 93.055 93.5285 94.1025 92.3996 94.3571C91.8597 94.4787 91.4678 94.9798 91.4678 95.5555C91.4678 96.0003 91.7052 96.4109 92.0874 96.6273C92.8657 97.0678 93.359 97.9061 93.3747 98.8151C93.3863 99.4873 93.1347 100.127 92.6662 100.617C92.1821 101.122 91.5078 101.412 90.8161 101.412H70.2674C69.4889 101.412 68.723 101.198 68.0524 100.791L66.3456 99.7573V94.8322C66.3456 94.2919 65.9188 93.8539 65.3925 93.8539C64.8662 93.8539 64.4394 94.2919 64.4394 94.8322V100.815C64.4394 101.889 63.5888 102.762 62.5432 102.762H47.9531C47.4267 102.762 47 103.2 47 103.74C47 104.28 47.4267 104.718 47.9531 104.718H62.5432C64.2617 104.718 65.7168 103.542 66.1861 101.932L67.0836 102.476C68.0473 103.06 69.1483 103.369 70.2674 103.369H90.8164C92.0161 103.369 93.1859 102.865 94.0262 101.987C94.856 101.121 95.3015 99.9814 95.2808 98.7801C95.2611 97.6412 94.818 96.5652 94.0725 95.7584C95.3883 94.9647 96.2543 93.4899 96.2543 91.8661C96.2543 91.0417 96.0323 90.2388 95.6253 89.5434C96.7804 88.6545 97.5009 87.2359 97.5009 85.7156C97.5009 84.6336 97.1397 83.5933 96.5002 82.7597C97.5438 81.8135 98.1572 80.4489 98.1572 78.9705Z" fill="white"/>
<path d="M76.3626 48.5177C76.3693 48.5243 76.3723 48.5339 76.3708 48.5431L75.8194 51.9384C75.6976 52.6891 75.9958 53.4318 76.5978 53.8762C76.9354 54.1256 77.3291 54.252 77.7256 54.252C78.0359 54.252 78.3477 54.1743 78.6353 54.0174L81.5964 52.4013C81.6044 52.397 81.614 52.3967 81.6222 52.4013L84.5977 53.9886C85.2557 54.3395 86.0358 54.278 86.6339 53.8277C87.2317 53.3773 87.5231 52.632 87.3944 51.8823L86.8119 48.4926C86.8104 48.4834 86.8133 48.4737 86.8199 48.4672L89.2102 46.0531C89.7388 45.5192 89.9227 44.7385 89.6903 44.0156C89.4578 43.2928 88.8571 42.7779 88.1228 42.672L84.8019 42.1931C84.7928 42.1918 84.7849 42.1859 84.7809 42.1774L83.2826 39.0982C82.9526 38.4201 82.2904 38 81.5527 38C81.5495 38 81.5463 38 81.5433 38C80.8016 38.0035 80.1391 38.4308 79.814 39.1149L78.344 42.2086C78.34 42.2171 78.3322 42.223 78.3231 42.2244L75.0067 42.7353C74.2733 42.8484 73.6775 43.3689 73.4517 44.094C73.2259 44.8191 73.417 45.5979 73.9504 46.1265L76.3626 48.5177ZM75.2757 44.6739C75.2757 44.6739 75.2794 44.6718 75.2895 44.6702L78.6061 44.1593C79.2356 44.0622 79.7781 43.6537 80.0571 43.0663L81.5271 39.9725C81.5316 39.9631 81.5346 39.9601 81.5346 39.9601C81.5415 39.9552 81.5629 39.9552 81.5696 39.9599C81.5696 39.9599 81.5726 39.9629 81.5773 39.9724L83.0756 43.0517C83.36 43.6364 83.9063 44.0397 84.5369 44.1306L87.8577 44.6096C87.8677 44.611 87.8714 44.613 87.8716 44.613C87.8782 44.6182 87.8848 44.6391 87.8826 44.6472C87.8826 44.6472 87.8808 44.6511 87.8735 44.6585L85.4832 47.0725C85.0293 47.5308 84.8243 48.1889 84.9349 48.8324L85.5173 52.2221C85.519 52.2325 85.5184 52.2367 85.5184 52.2367C85.5156 52.2448 85.4984 52.2578 85.4902 52.2581C85.4902 52.2581 85.486 52.2575 85.4768 52.2526L82.5013 50.6652C81.9363 50.3638 81.2633 50.3671 80.7013 50.674L77.7403 52.29C77.7314 52.295 77.7272 52.2956 77.7271 52.2956C77.7187 52.2955 77.7013 52.2826 77.6985 52.2746C77.6985 52.2746 77.6977 52.2704 77.6994 52.2599L78.2508 48.8646C78.3553 48.22 78.1444 47.5642 77.6864 47.1102L75.2742 44.7193C75.2668 44.712 75.2649 44.7082 75.2649 44.7082C75.2627 44.7001 75.2692 44.6791 75.2757 44.6739Z" fill="white"/>
<path d="M60.6467 54.8142L60.2214 57.4341C60.112 58.108 60.3797 58.7747 60.9202 59.1737C61.2232 59.3975 61.5768 59.511 61.9324 59.511C62.211 59.511 62.4911 59.4413 62.749 59.3005L65.0337 58.0535L67.3295 59.2783C67.9202 59.5933 68.6206 59.538 69.1572 59.1339C69.694 58.7295 69.9557 58.0604 69.84 57.3875L69.3906 54.7719L71.2349 52.909C71.7094 52.4297 71.8746 51.7289 71.6658 51.08C71.457 50.4311 70.918 49.9691 70.2587 49.874L67.6963 49.5045L66.5402 47.1282C66.2439 46.5194 65.6495 46.1423 64.9871 46.1423C64.9844 46.1423 64.9815 46.1423 64.9787 46.1423C64.313 46.1455 63.7182 46.5289 63.4263 47.1432L62.2921 49.5305L59.7332 49.9248C59.0748 50.0263 58.5398 50.4937 58.3371 51.1446C58.1344 51.7954 58.306 52.4946 58.7848 52.9691L60.6467 54.8142ZM62.6639 51.4519C63.229 51.3647 63.7159 50.9979 63.9665 50.4707L64.989 48.3187L66.0311 50.4607C66.2864 50.9856 66.7768 51.3476 67.3429 51.4293L69.6527 51.7624L67.9902 53.4417C67.5828 53.8531 67.3988 54.4437 67.498 55.0215L67.9032 57.3794L65.8332 56.2751C65.3262 56.0046 64.7221 56.0077 64.2176 56.2831L62.158 57.4072L62.5415 55.0455C62.6354 54.4668 62.4461 53.878 62.035 53.4706L60.357 51.8074L62.6639 51.4519Z" fill="white"/>
<path d="M104.653 51.1445C104.45 50.4936 103.915 50.0263 103.257 49.9248L100.698 49.5305L99.5636 47.1432C99.2718 46.5291 98.6768 46.1456 98.0112 46.1423C97.3493 46.1432 96.7472 46.5169 96.4497 47.1283L95.2936 49.5044L92.7313 49.8739C92.072 49.969 91.5328 50.431 91.3242 51.0799C91.1155 51.7289 91.2806 52.4297 91.7551 52.9089L93.5994 54.7718L93.15 57.3874C93.0343 58.0603 93.296 58.7296 93.8328 59.1338C94.3695 59.538 95.0698 59.5933 95.6605 59.2782L97.9563 58.0534L100.241 59.3003C100.499 59.4413 100.779 59.511 101.058 59.511C101.413 59.511 101.767 59.3974 102.07 59.1737C102.61 58.7747 102.878 58.108 102.769 57.4341L102.343 54.8142L104.205 52.9692C104.684 52.4944 104.856 51.7954 104.653 51.1445ZM100.955 53.4703C100.544 53.8778 100.355 54.4666 100.449 55.0453L100.832 57.4069L98.7729 56.2829C98.5181 56.1438 98.2381 56.0742 97.9577 56.0742C97.683 56.0742 97.4081 56.1411 97.157 56.275L95.0872 57.3792L95.4923 55.0212C95.5916 54.4433 95.4076 53.8529 95.0002 53.4416L93.3375 51.7622L95.6474 51.4291C96.2135 51.3475 96.7038 50.9854 96.9592 50.4605L98.0013 48.3185L99.0238 50.4707C99.2743 50.9979 99.7613 51.3647 100.326 51.4518L102.633 51.8072L100.955 53.4703Z" fill="white"/>
<path d="M47.9531 72.0149H52.0197C52.546 72.0149 52.9727 71.5769 52.9727 71.0366C52.9727 70.4964 52.546 70.0583 52.0197 70.0583H47.9531C47.4267 70.0583 47 70.4964 47 71.0366C47 71.5769 47.4266 72.0149 47.9531 72.0149Z" fill="white"/>
<path d="M56.0814 72.0151H62.5434C63.5889 72.0151 64.4396 72.8882 64.4396 73.9615V90.6631C64.4396 91.2034 64.8663 91.6414 65.3926 91.6414C65.919 91.6414 66.3457 91.2034 66.3457 90.6631V75.2106L67.6934 72.2984C68.2724 71.0474 69.2751 70.0602 70.5169 69.5185L71.5753 69.0569C71.612 69.0408 71.6476 69.0224 71.6822 69.002L78.1381 65.1437C78.3155 65.0377 78.4547 64.8757 78.5352 64.6819L80.2497 60.553C80.5423 59.8483 81.2136 59.3928 81.9685 59.3928C83.2437 59.3928 84.381 60.175 84.8658 61.3856C85.0627 61.8772 85.1626 62.396 85.1626 62.9277V67.4829C85.1626 68.7487 84.9029 69.9741 84.3905 71.1253L83.4157 73.3158C83.1669 73.875 83.2116 74.5176 83.5354 75.0348C83.8592 75.552 84.4101 75.8607 85.009 75.8607H88.1276C88.654 75.8607 89.0807 75.4227 89.0807 74.8824C89.0807 74.3422 88.654 73.9042 88.1276 73.9042H85.2494L86.1242 71.9383C86.7509 70.5301 87.0686 69.0311 87.0686 67.4829V62.9277C87.0686 62.1395 86.9206 61.3703 86.6285 60.6416C85.8487 58.6944 84.0194 57.4363 81.9599 57.4363C80.4483 57.4363 79.0887 58.3586 78.496 59.7858L76.9054 63.6161L70.7745 67.2801L69.7711 67.7177C68.0999 68.4467 66.7505 69.7753 65.9714 71.4587L65.7683 71.8976C65.0958 70.7943 63.9018 70.0584 62.543 70.0584H56.081C55.5546 70.0584 55.1279 70.4963 55.1279 71.0366C55.1279 71.5769 55.555 72.0151 56.0814 72.0151Z" fill="white"/>
</svg>
