<svg width="27" height="27" viewBox="0 0 27 27" fill="none" xmlns="http://www.w3.org/2000/svg">
<path d="M13.5001 0C8.03249 0 3.6001 4.43239 3.6001 9.9C3.6001 15.2199 12.763 26.365 13.1531 26.8366C13.2386 26.9401 13.3659 27 13.5001 27C13.6343 27 13.7615 26.9401 13.847 26.8366C14.2372 26.365 23.4001 15.2199 23.4001 9.9C23.4001 4.43239 18.9677 0 13.5001 0ZM13.5001 25.8349C11.8067 23.7213 4.5001 14.3424 4.5001 9.9C4.50578 4.93178 8.53193 0.905681 13.5001 0.9C18.4683 0.905681 22.4944 4.93178 22.5001 9.9C22.5001 14.3415 15.1934 23.7208 13.5001 25.8349Z" fill="black"/>
<path d="M19.6245 8.19365L13.7745 3.69365C13.6126 3.56912 13.3873 3.56912 13.2255 3.69365L7.37547 8.19365C7.17865 8.34536 7.14209 8.62796 7.2938 8.82478C7.37896 8.93525 7.51047 9 7.64997 9.00005H8.99997V13.9501C8.99997 14.1986 9.20146 14.4001 9.44997 14.4001H17.55C17.7985 14.4001 18 14.1986 18 13.9501V9.00005H19.35C19.5985 8.99994 19.7999 8.79834 19.7998 8.54983C19.7997 8.41033 19.735 8.27882 19.6245 8.19365ZM14.4 13.5001H12.6V10.8001H14.4V13.5001ZM17.55 8.10005C17.3015 8.10005 17.1 8.30154 17.1 8.55005V13.5001H15.3V10.3501C15.3 10.1015 15.0985 9.90005 14.85 9.90005H12.15C11.9015 9.90005 11.7 10.1015 11.7 10.3501V13.5001H9.89997V8.55005C9.89997 8.30154 9.69849 8.10005 9.44997 8.10005H8.97297L13.5 4.61795L18.027 8.10005H17.55Z" fill="black"/>
</svg>
