<svg width="13" height="13" viewBox="0 0 13 13" fill="none" xmlns="http://www.w3.org/2000/svg">
<g clip-path="url(#clip0)">
<path d="M12.8412 12.0761L9.14432 8.3793C9.8604 7.49478 10.2916 6.37082 10.2916 5.14668C10.2916 2.30945 7.98299 0.00088501 5.14577 0.00088501C2.30854 0.00088501 0 2.30943 0 5.14665C0 7.98387 2.30857 10.2924 5.14579 10.2924C6.36994 10.2924 7.49389 9.86129 8.37842 9.1452L12.0753 12.842C12.1809 12.9477 12.3195 13.0008 12.4582 13.0008C12.5969 13.0008 12.7356 12.9477 12.8412 12.842C13.053 12.6303 13.053 12.2879 12.8412 12.0761ZM5.14579 9.20911C2.90547 9.20911 1.08333 7.38697 1.08333 5.14665C1.08333 2.90633 2.90547 1.08419 5.14579 1.08419C7.38611 1.08419 9.20825 2.90633 9.20825 5.14665C9.20825 7.38697 7.38609 9.20911 5.14579 9.20911Z" fill="black"/>
</g>
<defs>
<clipPath id="clip0">
<rect width="13" height="13" fill="white"/>
</clipPath>
</defs>
</svg>
