<svg width="26" height="26" viewBox="0 0 26 26" fill="none" xmlns="http://www.w3.org/2000/svg">
<path d="M18.5859 0H7.41406C6.36401 0 5.50977 0.854242 5.50977 1.9043V24.0957C5.50977 25.1458 6.36401 26 7.41406 26H18.5859C19.636 26 20.4902 25.1458 20.4902 24.0957V1.9043C20.4902 0.854242 19.636 0 18.5859 0ZM19.7285 20.668H8.9375C8.72716 20.668 8.55664 20.8385 8.55664 21.0488C8.55664 21.2592 8.72716 21.4297 8.9375 21.4297H19.7285V24.0957C19.7285 24.7257 19.216 25.2383 18.5859 25.2383H7.41406C6.78402 25.2383 6.27148 24.7257 6.27148 24.0957V21.4297H7.41406C7.6244 21.4297 7.79492 21.2592 7.79492 21.0488C7.79492 20.8385 7.6244 20.668 7.41406 20.668H6.27148V3.80859H19.7285V20.668ZM19.7285 3.04688H6.27148V1.9043C6.27148 1.27425 6.78402 0.761719 7.41406 0.761719H18.5859C19.216 0.761719 19.7285 1.27425 19.7285 1.9043V3.04688Z" fill="black"/>
<path d="M14.5234 1.52344H13C12.7897 1.52344 12.6191 1.69396 12.6191 1.9043C12.6191 2.11463 12.7897 2.28516 13 2.28516H14.5234C14.7338 2.28516 14.9043 2.11463 14.9043 1.9043C14.9043 1.69396 14.7338 1.52344 14.5234 1.52344Z" fill="black"/>
<path d="M13 22.1914C12.37 22.1914 11.8574 22.7039 11.8574 23.334C11.8574 23.964 12.37 24.4766 13 24.4766C13.63 24.4766 14.1426 23.964 14.1426 23.334C14.1426 22.7039 13.63 22.1914 13 22.1914ZM13 23.7148C12.79 23.7148 12.6191 23.544 12.6191 23.334C12.6191 23.124 12.79 22.9531 13 22.9531C13.21 22.9531 13.3809 23.124 13.3809 23.334C13.3809 23.544 13.21 23.7148 13 23.7148Z" fill="black"/>
<path d="M11.4766 2.28516C11.6869 2.28516 11.8574 2.11464 11.8574 1.9043C11.8574 1.69395 11.6869 1.52344 11.4766 1.52344C11.2662 1.52344 11.0957 1.69395 11.0957 1.9043C11.0957 2.11464 11.2662 2.28516 11.4766 2.28516Z" fill="black"/>
</svg>
