<svg width="64" height="61" viewBox="0 0 64 61" fill="none" xmlns="http://www.w3.org/2000/svg">
<path d="M55.0628 43.0149C55.0555 43.0033 55.0482 42.9917 55.0408 42.98C54.9871 42.8962 54.9319 42.8132 54.8756 42.7307C54.8446 42.6852 54.8133 42.6398 54.7816 42.5948C54.743 42.5401 54.7039 42.4857 54.6641 42.4316C54.6127 42.3614 54.5603 42.2921 54.5072 42.2232C54.4913 42.2027 54.4766 42.1817 54.4607 42.1614C54.4493 42.1469 54.4373 42.1332 54.4259 42.1188C54.3619 42.0379 54.2966 41.9582 54.2302 41.8794C54.207 41.8517 54.1839 41.824 54.1606 41.7967C54.0944 41.7197 54.0268 41.6439 53.9584 41.5689C53.9299 41.5375 53.9018 41.506 53.8731 41.475C53.8161 41.4138 53.7576 41.3538 53.6991 41.294C53.6554 41.2492 53.6122 41.2042 53.5678 41.1602C53.5346 41.1273 53.5002 41.0954 53.4664 41.063C52.172 39.8142 50.5768 38.9022 48.7808 38.3982C48.7501 38.3895 48.7188 38.3823 48.6872 38.3767C48.6868 38.3767 40.2126 36.8763 40.2122 36.8762C40.1972 36.8735 40.1822 36.8728 40.1672 36.8706C39.7707 36.8091 39.3656 36.8597 39.0019 37.0115C38.7069 36.6662 38.5126 36.1919 38.5126 35.7537V34.2914C39.0482 33.9654 39.5683 33.5991 40.0703 33.1871C42.1704 31.4636 43.4931 28.9758 43.7785 26.2619C45.3204 26.194 46.5528 24.9771 46.5528 23.491V21.4074C46.5528 20.5649 46.1567 19.7852 45.4898 19.2648V14.4751C48.5541 13.0358 49.2199 11.3577 49.2199 10.1737C49.2199 8.14207 47.2347 5.59913 44.0389 3.53705C41.9916 2.21613 37.7051 0 32.0001 0C26.2951 0 22.0087 2.21613 19.9613 3.53705C16.7656 5.59901 14.7803 8.14195 14.7803 10.1737C14.7803 11.3577 15.4462 13.0358 18.5104 14.4751V19.2648C17.8437 19.7852 17.4474 20.5649 17.4474 21.4074V23.491C17.4474 24.9771 18.6798 26.194 20.2218 26.2619C20.5071 28.9758 21.8298 31.4637 23.9299 33.1871C24.4319 33.5991 24.9521 33.9654 25.4877 34.2914V35.7537C25.4877 36.1919 25.2933 36.6661 24.9983 37.0114C24.6209 36.8538 24.1987 36.8033 23.7881 36.8762L15.3132 38.3767C15.2816 38.3823 15.2503 38.3895 15.2196 38.3982C13.4244 38.9019 11.8301 39.8132 10.5358 41.0611C10.5012 41.0943 10.4662 41.1271 10.4321 41.1607C10.3883 41.204 10.3457 41.2485 10.3027 41.2926C10.2436 41.3531 10.1846 41.4136 10.1268 41.4755C10.0984 41.506 10.0707 41.5372 10.0426 41.568C9.97382 41.6435 9.90595 41.7196 9.83957 41.7969C9.8162 41.8241 9.79345 41.8517 9.77032 41.8791C9.70382 41.9582 9.63832 42.0379 9.57432 42.1188C9.56295 42.1332 9.55095 42.1468 9.53957 42.1614C9.52357 42.1817 9.50882 42.2027 9.49307 42.2232C9.43995 42.2921 9.38757 42.3614 9.3362 42.4316C9.29632 42.4858 9.2572 42.5404 9.21857 42.595C9.18695 42.64 9.15582 42.6851 9.12495 42.7305C9.06857 42.8131 9.01332 42.8962 8.95945 42.98C8.95207 42.9915 8.9447 43.0032 8.93745 43.0148C7.90132 44.6421 7.35645 46.49 7.35645 48.4173V49.5067C7.35645 50.0005 7.77632 50.4005 8.2942 50.4005C8.81207 50.4005 9.23195 50.0003 9.23195 49.5067V48.4173C9.23195 47.5462 9.36745 46.6949 9.62845 45.8817C10.1803 46.3 10.8501 46.5227 11.5462 46.5227C11.6574 46.5227 11.7696 46.517 11.8817 46.5055C12.7028 46.4216 13.4406 46.0378 13.9589 45.4251L14.9794 44.2188C15.4978 43.6061 15.7348 42.8375 15.6468 42.0549C15.5768 41.4329 15.3076 40.8615 14.8776 40.405C15.1471 40.3005 15.4223 40.2063 15.7044 40.1256L21.1121 39.1682L25.4031 44.8914C25.8326 45.4639 26.5051 45.7797 27.2026 45.7797C27.4952 45.7797 27.7922 45.7241 28.0774 45.6087L28.3631 45.493L29.6118 46.8767L27.8107 59.2123H16.0264V51.9646C16.0264 51.4709 15.6066 51.0708 15.0887 51.0708C14.5708 51.0708 14.1509 51.4709 14.1509 51.9646V59.2123H10.3997C9.75582 59.2123 9.2322 58.7131 9.2322 58.0995V53.6658C9.2322 53.1721 8.81232 52.772 8.29445 52.772C7.77657 52.772 7.3567 53.1722 7.3567 53.6658V58.0995C7.3567 59.6987 8.72182 61 10.3998 61H53.6008C55.2788 61 56.644 59.6987 56.644 58.0995V48.4176C56.6437 46.4901 56.0989 44.6422 55.0628 43.0149ZM13.5193 43.097L12.4988 44.3034C12.2949 44.5444 12.0048 44.6952 11.6818 44.7284C11.3593 44.7612 11.0417 44.6726 10.7888 44.4782L10.3974 44.1775C10.4814 44.0347 10.5694 43.8946 10.6612 43.7573C10.6622 43.7557 10.6634 43.7542 10.6644 43.7525C10.7432 43.6348 10.8261 43.5202 10.9104 43.4066C10.9361 43.3723 10.9616 43.338 10.9877 43.3039C11.0629 43.2057 11.1403 43.1094 11.2197 43.0145C11.2402 42.99 11.2603 42.9651 11.2811 42.9408C11.3707 42.8361 11.4632 42.7338 11.5578 42.6334C11.5854 42.604 11.6136 42.5751 11.6416 42.5462C11.7353 42.4493 11.8306 42.3539 11.9289 42.2613C11.9373 42.2533 11.9456 42.2451 11.9541 42.2371C12.3167 41.8982 12.7098 41.5877 13.1307 41.3092L13.3362 41.4671C13.5891 41.6615 13.7474 41.938 13.7821 42.2458C13.8164 42.5536 13.7233 42.8557 13.5193 43.097ZM50.6642 41.4669L50.8697 41.3089C51.2907 41.5875 51.6837 41.8979 52.0463 42.2369C52.0548 42.2449 52.063 42.2531 52.0714 42.2611C52.1698 42.3538 52.2651 42.4492 52.3588 42.546C52.3868 42.5749 52.415 42.6037 52.4426 42.6332C52.5372 42.7336 52.6297 42.8359 52.7193 42.9405C52.7401 42.9649 52.7602 42.9897 52.7807 43.0143C52.8601 43.1091 52.9375 43.2056 53.0127 43.3037C53.0388 43.3376 53.0644 43.3721 53.0899 43.4064C53.1743 43.5199 53.2572 43.6347 53.3359 43.7523C53.3371 43.7538 53.3382 43.7553 53.3392 43.757C53.4311 43.8944 53.5191 44.0345 53.6029 44.1772L53.2116 44.4779C52.9586 44.6723 52.6412 44.7609 52.3186 44.7281C51.9956 44.6951 51.7055 44.5442 51.5014 44.303L50.4809 43.0967C50.06 42.5992 50.1423 41.8682 50.6642 41.4669ZM39.4676 38.8454C39.4688 38.8446 39.4701 38.8437 39.4713 38.8427L39.7167 38.6678C39.7603 38.6367 39.8162 38.6247 39.8694 38.6339L40.8531 38.808L37.0713 43.852C36.9767 43.9783 36.806 44.024 36.6561 43.9634L33.8681 42.8345L39.4676 38.8454ZM32.0001 41.9333L26.5354 38.0403C27.0517 37.3943 27.3633 36.5721 27.3633 35.7537V35.2305C28.8098 35.8081 30.3554 36.1101 31.9897 36.1275C31.9932 36.1275 31.9967 36.1275 32.0002 36.1275C32.0037 36.1275 32.0072 36.1275 32.0107 36.1275C33.6449 36.11 35.1906 35.808 36.6371 35.2305V35.7537C36.6371 36.5722 36.9487 37.3943 37.4648 38.0403L32.0001 41.9333ZM33.8256 44.7596L32.9713 45.7062H31.0292L30.1749 44.7596L32.0002 44.0206L33.8256 44.7596ZM18.5104 12.4376C17.3052 11.7294 16.6559 10.9471 16.6559 10.1735C16.6559 8.56228 18.9143 6.37128 21.0127 5.01737C22.8822 3.81131 26.7954 1.78771 32.0001 1.78771C37.2047 1.78771 41.118 3.81131 42.9874 5.01749C45.0858 6.3714 47.3442 8.5624 47.3442 10.1737C47.3442 10.9471 46.6949 11.7295 45.4897 12.4377V10.8123C45.4897 9.54996 44.5933 8.44993 43.3097 8.13719C40.8818 7.54577 36.1077 6.55357 31.4129 6.55178C31.4087 6.55178 31.4052 6.55178 31.4009 6.55178C27.3356 6.55178 23.2966 7.40495 20.6237 8.12098C19.3794 8.45434 18.5104 9.54733 18.5104 10.7789V12.4376ZM21.7628 15.5757C21.7497 15.5677 21.7363 15.5599 21.7233 15.5519C21.6626 15.5148 21.6041 15.4776 21.5472 15.4401C21.5241 15.4249 21.5012 15.4096 21.4787 15.3943C21.4322 15.3628 21.3871 15.3311 21.3433 15.2994C21.3132 15.2775 21.2841 15.2556 21.2553 15.2337C21.2208 15.2075 21.1869 15.1813 21.1544 15.1549C21.1198 15.1268 21.0869 15.0988 21.0547 15.0707C21.0304 15.0496 21.0059 15.0286 20.9829 15.0075C20.9462 14.9737 20.9118 14.94 20.8784 14.9063C20.8624 14.8902 20.8457 14.874 20.8304 14.8579C20.8288 14.8561 20.8274 14.8543 20.8258 14.8527H36.5701C37.0879 14.8527 37.5078 14.4525 37.5078 13.9589C37.5078 13.4652 37.0879 13.0651 36.5701 13.0651H20.3861V10.779C20.3861 10.3449 20.6924 9.95956 21.1312 9.84209C23.6908 9.15631 27.5488 8.33949 31.4009 8.33949C31.4044 8.33949 31.4086 8.33949 31.4121 8.33949C35.9019 8.34127 40.5026 9.29857 42.8452 9.86925C43.2978 9.97946 43.6139 10.3673 43.6139 10.8123V13.065H41.0989C40.5811 13.065 40.1612 13.4652 40.1612 13.9588C40.1612 14.4526 40.5811 14.8527 41.0991 14.8527H43.1748C43.1732 14.8545 43.1718 14.8562 43.1702 14.8579C43.1549 14.874 43.1382 14.8902 43.1222 14.9063C43.0887 14.94 43.0545 14.9737 43.0177 15.0075C42.9947 15.0286 42.9702 15.0496 42.9459 15.0707C42.9137 15.0988 42.8808 15.1268 42.8462 15.1549C42.8137 15.1813 42.7798 15.2075 42.7453 15.2337C42.7166 15.2556 42.6874 15.2775 42.6573 15.2994C42.6136 15.3311 42.5685 15.3628 42.5219 15.3943C42.4995 15.4095 42.4766 15.4249 42.4534 15.4401C42.3965 15.4776 42.3381 15.5148 42.2773 15.5519C42.2643 15.5599 42.2511 15.5677 42.2378 15.5757C41.8481 15.8095 41.3837 16.035 40.8529 16.2442C40.8418 16.2486 40.8318 16.2548 40.8209 16.2596C38.8117 17.049 35.7923 17.6456 32.0003 17.6456C28.2083 17.6456 25.1889 17.049 23.1797 16.2596C23.1688 16.2548 23.1588 16.2486 23.1477 16.2442C22.6169 16.035 22.1526 15.8095 21.7628 15.5757ZM21.8513 17.6528V19.3942C21.3357 19.1395 20.8139 19.0025 20.3862 18.9292V16.8521C20.7884 17.1246 21.2722 17.3936 21.8513 17.6528ZM42.1489 17.6527C42.7281 17.3936 43.2117 17.1246 43.6141 16.8521V18.9289C43.1863 19.0022 42.6646 19.1393 42.1489 19.3941V17.6527ZM25.1537 31.8324C23.2331 30.2562 22.0987 27.8942 22.0414 25.3518C22.0306 24.8658 21.6139 24.4772 21.1039 24.4772H20.3578C19.7873 24.4772 19.3231 24.0348 19.3231 23.491V21.4074C19.3231 21.1075 19.4649 20.8297 19.7036 20.6446C20.0342 20.6724 20.6514 20.7669 21.1749 21.0838C21.1802 21.0871 21.1853 21.0902 21.1906 21.0934C21.2644 21.1389 21.3362 21.189 21.4051 21.244C21.4131 21.2503 21.4211 21.2567 21.4289 21.2633C21.4624 21.2908 21.4953 21.3191 21.5272 21.3492C21.5551 21.3754 21.5842 21.3998 21.6139 21.4232C21.6227 21.4301 21.6316 21.4365 21.6404 21.4432C21.6629 21.46 21.6858 21.4759 21.7092 21.4911C21.7184 21.497 21.7274 21.5031 21.7368 21.5088C21.7686 21.5284 21.8007 21.5468 21.8338 21.5634C21.8339 21.5635 21.8342 21.5636 21.8343 21.5637C21.8679 21.5805 21.9023 21.5955 21.9372 21.6094C21.9468 21.6132 21.9566 21.6166 21.9663 21.6202C21.9928 21.6301 22.0194 21.639 22.0464 21.6471C22.0566 21.6502 22.0666 21.6533 22.0768 21.6561C22.1122 21.6658 22.1478 21.6744 22.1838 21.6812C22.1844 21.6813 22.1849 21.6814 22.1856 21.6816C22.2226 21.6885 22.2599 21.6934 22.2974 21.6972C22.3076 21.6982 22.3177 21.6988 22.3277 21.6996C22.3561 21.7018 22.3846 21.7031 22.4132 21.7035C22.4197 21.7036 22.4261 21.7043 22.4324 21.7043C22.4366 21.7043 22.4408 21.7037 22.4449 21.7037C22.4818 21.7034 22.5188 21.7019 22.5558 21.6986C22.5568 21.6985 22.5578 21.6985 22.5587 21.6985C22.5966 21.6949 22.6344 21.6893 22.6722 21.6824C22.6828 21.6805 22.6934 21.6781 22.7041 21.676C22.7321 21.6701 22.7599 21.6635 22.7878 21.656C22.7988 21.653 22.8098 21.6501 22.8208 21.6468C22.8578 21.6356 22.8946 21.6234 22.9309 21.609C23.4144 21.4166 23.7268 20.9701 23.7268 20.4711V18.3335C26.1416 19.0583 29.1107 19.4331 32.0001 19.4331C34.8894 19.4331 37.8586 19.0583 40.2733 18.3335V20.4711C40.2733 20.9701 40.5857 21.4167 41.0692 21.609C41.1057 21.6235 41.1427 21.6358 41.1798 21.647C41.1903 21.6501 41.2008 21.6529 41.2113 21.6558C41.2398 21.6636 41.2684 21.6705 41.2972 21.6763C41.3072 21.6784 41.3172 21.6806 41.3273 21.6824C41.4032 21.6962 41.4797 21.7033 41.556 21.7038C41.5598 21.7038 41.5638 21.7044 41.5677 21.7044C41.5737 21.7044 41.5797 21.7037 41.5858 21.7036C41.6152 21.7033 41.6444 21.7018 41.6737 21.6996C41.6832 21.6988 41.6927 21.6982 41.7022 21.6973C41.7772 21.6898 41.8513 21.676 41.9238 21.656C41.9337 21.6532 41.9434 21.6502 41.9533 21.6473C41.9806 21.6392 42.0075 21.63 42.0342 21.6201C42.0438 21.6165 42.0536 21.6131 42.0631 21.6093C42.0979 21.5954 42.1324 21.5804 42.1661 21.5636C42.1663 21.5635 42.1666 21.5634 42.1668 21.5633C42.1998 21.5467 42.2319 21.5282 42.2636 21.5088C42.2729 21.5031 42.2821 21.4969 42.2914 21.4909C42.3147 21.4758 42.3376 21.4598 42.3599 21.4432C42.3689 21.4365 42.3779 21.4299 42.3867 21.423C42.4165 21.3996 42.4456 21.3753 42.4733 21.349C42.5048 21.3193 42.5376 21.2913 42.5707 21.264C42.5793 21.2568 42.5881 21.2498 42.5968 21.2428C42.6276 21.2182 42.6587 21.1945 42.6906 21.172C42.6936 21.1699 42.6963 21.1677 42.6993 21.1656C42.7338 21.1414 42.7689 21.1187 42.8044 21.0967C42.8139 21.0907 42.8236 21.085 42.8332 21.0792C42.8648 21.0602 42.8968 21.0419 42.9289 21.0245C42.9336 21.022 42.9382 21.0193 42.9429 21.0168C42.9796 20.9973 43.0164 20.979 43.0536 20.9615C43.0628 20.9571 43.0721 20.9529 43.0813 20.9486C43.1146 20.9334 43.1479 20.9186 43.1813 20.9048C43.186 20.9029 43.1904 20.9008 43.1951 20.8989C43.2336 20.8832 43.2721 20.8686 43.3104 20.8546C43.3173 20.8521 43.3241 20.8497 43.3309 20.8473C43.3674 20.8344 43.4038 20.8221 43.4401 20.8107C43.4421 20.8101 43.4441 20.8093 43.4461 20.8087C43.4867 20.796 43.5271 20.7842 43.5669 20.7732C43.5684 20.7729 43.57 20.7724 43.5714 20.772C43.8571 20.6939 44.1188 20.6595 44.2968 20.6443C44.5356 20.8296 44.6774 21.1073 44.6774 21.4073V23.4908C44.6774 24.0347 44.2132 24.4771 43.6427 24.4771H42.8966C42.3864 24.4771 41.9699 24.8657 41.9591 25.3517C41.9018 27.894 40.7674 30.2561 38.8468 31.8322C36.8552 33.4667 34.552 34.3104 32.0005 34.3397C29.4487 34.3105 27.1456 33.467 25.1537 31.8324ZM27.3441 43.9634C27.1939 44.0239 27.0233 43.978 26.9288 43.8521L23.1471 38.8082L24.1307 38.634C24.1842 38.6247 24.2398 38.6368 24.2834 38.6679L24.5288 38.8427C24.5302 38.8437 24.5314 38.8446 24.5328 38.8456L30.1319 42.8345L27.3441 43.9634ZM29.7042 59.2123L31.4151 47.4939H32.5851L34.2959 59.2123H29.7042ZM53.6007 59.2123H49.8497V51.9646C49.8497 51.4709 49.4298 51.0708 48.9119 51.0708C48.3941 51.0708 47.9742 51.4709 47.9742 51.9646V59.2123H36.1898L34.3887 46.8767L35.6374 45.493L35.9231 45.6087C36.2083 45.7241 36.5052 45.7797 36.7978 45.7797C37.4952 45.7797 38.1681 45.4641 38.5975 44.8912L42.8883 39.1682L48.2959 40.1256C48.5781 40.2063 48.8534 40.3005 49.1229 40.405C48.1312 41.4611 48.0576 43.0803 49.0206 44.2187L50.0412 45.4251C50.5596 46.0378 51.2972 46.4215 52.1183 46.5054C52.2306 46.5169 52.3426 46.5226 52.4539 46.5226C53.1498 46.5226 53.8197 46.2997 54.3716 45.8815C54.6326 46.6948 54.7681 47.546 54.7681 48.4172V58.0995H54.7682C54.7683 58.7131 54.2444 59.2123 53.6007 59.2123Z" fill="#7A9DD1"/>
<path d="M44.8012 51.0708H39.8626C39.0178 51.0708 38.3306 51.7258 38.3306 52.531V55.0388C38.3306 55.8439 39.0178 56.499 39.8626 56.499H44.8012C45.6459 56.499 46.3331 55.8439 46.3331 55.0388V52.531C46.3331 51.7257 45.6458 51.0708 44.8012 51.0708ZM40.2059 54.7111V52.8584H44.4573V54.7111H40.2059Z" fill="#7A9DD1"/>
<path d="M24.1375 51.0708H19.1989C18.3541 51.0708 17.667 51.7258 17.667 52.531V55.0388C17.667 55.8439 18.3542 56.499 19.1989 56.499H24.1375C24.9822 56.499 25.6695 55.8439 25.6695 55.0388V52.531C25.6696 51.7258 24.9822 51.0708 24.1375 51.0708ZM23.794 54.7113H19.5426V52.8585H23.794V54.7113Z" fill="#7A9DD1"/>
</svg>
