<svg width="25" height="25" viewBox="0 0 25 25" fill="none" xmlns="http://www.w3.org/2000/svg">
<g clip-path="url(#clip0)">
<path d="M0.173295 16.8872C0.173321 16.8898 0.173064 16.8924 0.173091 16.895C0.204888 20.0501 2.78834 22.582 5.94348 22.5502C9.09862 22.5185 11.6305 19.935 11.5987 16.7799C11.5669 13.6247 8.98319 11.0928 5.82829 11.1246C5.17986 11.1311 4.56029 11.2504 3.98152 11.4554C5.19249 4.06917 10.8944 -0.743803 5.60381 3.22341C-0.262675 7.62259 0.165005 16.7208 0.173295 16.8872Z" fill="#B2C6E4"/>
<path d="M18.3962 10.9982C17.7477 11.0047 17.1282 11.124 16.5491 11.329C17.7604 3.94275 23.4623 -0.870225 18.1717 3.09698C12.3052 7.49612 12.7328 16.5943 12.7412 16.7607C12.7412 16.7633 12.7409 16.7659 12.741 16.7685C12.7727 19.9237 15.3562 22.4556 18.5113 22.4238C21.6665 22.392 24.1983 19.8086 24.1665 16.6534C24.1348 13.4982 21.5511 10.9664 18.3962 10.9982Z" fill="#B2C6E4"/>
</g>
<defs>
<clipPath id="clip0">
<rect width="24" height="24" fill="white" transform="translate(24.2407 23.999) rotate(179.423)"/>
</clipPath>
</defs>
</svg>
