<svg width="24" height="24" viewBox="0 0 24 24" fill="none" xmlns="http://www.w3.org/2000/svg">
<path d="M23.9947 7.35421C23.9947 7.35161 23.995 7.34901 23.995 7.34641C23.995 4.19111 21.4372 1.6333 18.2819 1.6333C15.1266 1.6333 12.5688 4.19106 12.5688 7.34641C12.5688 10.5018 15.1269 13.0595 18.282 13.0595C18.9304 13.0595 19.5512 12.9465 20.132 12.7473C18.8466 20.121 13.0965 24.8763 18.4268 20.9626C24.3373 16.6227 24.0013 7.52073 23.9947 7.35421Z" fill="#B2C6E4"/>
<path d="M5.71311 13.0595C6.36158 13.0595 6.98231 12.9464 7.56341 12.7473C6.27772 20.121 0.527624 24.8762 5.85795 20.9625C11.7685 16.6227 11.4326 7.52073 11.4259 7.35421C11.4259 7.35161 11.4262 7.34901 11.4262 7.34641C11.4262 4.19111 8.86841 1.6333 5.71311 1.6333C2.55776 1.6333 0 4.19106 0 7.34641C0 10.5018 2.55805 13.0595 5.71311 13.0595Z" fill="#B2C6E4"/>
</svg>
