<svg width="63" height="63" viewBox="0 0 63 63" fill="none" xmlns="http://www.w3.org/2000/svg">
<path d="M7.875 55.125H9.84375V57.0938H7.875V55.125Z" fill="#7A9DD1"/>
<path d="M13.7812 52.1719H15.75V54.1406H13.7812V52.1719Z" fill="#7A9DD1"/>
<path d="M11.8125 40.3594H13.7812V42.3281H11.8125V40.3594Z" fill="#7A9DD1"/>
<path d="M5.90625 43.3125H7.875V45.2812H5.90625V43.3125Z" fill="#7A9DD1"/>
<path d="M19.6875 54.1406H21.6562V56.1094H19.6875V54.1406Z" fill="#7A9DD1"/>
<path d="M27.5625 50.2031H29.5312V52.1719H27.5625V50.2031Z" fill="#7A9DD1"/>
<path d="M54.1406 54.1406H56.1094V56.1094H54.1406V54.1406Z" fill="#7A9DD1"/>
<path d="M33.4688 53.1562H35.4375V55.125H33.4688V53.1562Z" fill="#7A9DD1"/>
<path d="M51.1875 48.2344H53.1562V50.2031H51.1875V48.2344Z" fill="#7A9DD1"/>
<path d="M9.84375 29.5312H11.8125V31.5H9.84375V29.5312Z" fill="#7A9DD1"/>
<path d="M13.7812 29.5312H15.75V31.5H13.7812V29.5312Z" fill="#7A9DD1"/>
<path d="M21.6562 28.5469H23.625V31.5H21.6562V28.5469Z" fill="#7A9DD1"/>
<path d="M25.5938 28.5469H27.5625V31.5H25.5938V28.5469Z" fill="#7A9DD1"/>
<path d="M59.7645 13.1654L48.7661 3.01285C48.0393 2.34063 47.0854 1.96772 46.0954 1.96875H26.5781C25.5342 1.96995 24.5334 2.38517 23.7952 3.12334C23.057 3.8615 22.6418 4.86233 22.6406 5.90625V20.6719H6.89062C6.62956 20.6719 6.37918 20.7756 6.19458 20.9602C6.00998 21.1448 5.90626 21.3952 5.90625 21.6563V38.2978L2.42465 40.5133C2.28493 40.6022 2.1699 40.7249 2.09021 40.8701C2.01051 41.0152 1.96874 41.1782 1.96875 41.3438V60.0469C1.96876 60.3079 2.07248 60.5583 2.25708 60.7429C2.44168 60.9275 2.69206 61.0312 2.95312 61.0313H60.0469C60.3079 61.0312 60.5583 60.9275 60.7429 60.7429C60.9275 60.5583 61.0312 60.3079 61.0312 60.0469V16.0586C61.0306 15.5151 60.9178 14.9776 60.6998 14.4798C60.4818 13.982 60.1634 13.5345 59.7645 13.1654ZM24.6094 5.90625C24.61 5.38429 24.8176 4.88388 25.1867 4.5148C25.5557 4.14571 26.0562 3.9381 26.5781 3.9375H46.0954C46.1525 3.9375 46.2092 3.94057 46.2656 3.94543V11.8125C46.2668 12.8564 46.682 13.8573 47.4202 14.5954C48.1584 15.3336 49.1592 15.7488 50.2031 15.75H55.125V13.7813H50.2031C49.6812 13.7807 49.1808 13.573 48.8117 13.204C48.4426 12.8349 48.235 12.3345 48.2344 11.8125V5.20135L58.4291 14.6121C58.6286 14.7966 58.7878 15.0203 58.8968 15.2692C59.0058 15.5181 59.0622 15.7869 59.0625 16.0586V46.4412L55.5606 44.2128C50.6508 41.0881 44.7937 39.8018 39.0264 40.5816L33.9043 37.3221C33.1286 36.8287 32.3259 36.3789 31.5 35.9749V26.5781C31.5 26.4338 31.4683 26.2913 31.4071 26.1606C31.3458 26.0299 31.2566 25.9143 31.1458 25.8219L25.2395 20.9001C25.0627 20.7525 24.8397 20.6717 24.6094 20.6719V5.90625ZM29.5312 27.0392V35.1153C26.7046 34.0259 23.7012 33.4677 20.6719 33.4688C20.3431 33.4688 20.015 33.4755 19.6875 33.489V27.0392L24.6094 22.9377L29.5312 27.0392ZM17.7188 33.4688H7.875V27.5625H17.7188V33.4688ZM11.0184 35.4375C9.93337 35.8998 8.88288 36.4393 7.875 37.0519V35.4375H11.0184ZM20.6719 35.4375C21.3312 35.4375 21.9875 35.466 22.6406 35.5231V47.25H18.7031V35.5231C19.3557 35.4664 20.012 35.4379 20.6719 35.4375ZM24.6094 35.7813C27.539 36.2971 30.3383 37.3851 32.8474 38.983L36.2176 41.1277C33.6955 41.7731 31.2916 42.8144 29.0957 44.2128L24.6094 47.0676V35.7813ZM42.3281 42.3281C43.3157 42.3283 44.3021 42.3928 45.2812 42.5213V59.0625H40.3594V42.4137C41.012 42.3571 41.6682 42.3285 42.3281 42.3281ZM7.875 22.6406H21.8906L18.3468 25.5938H7.875V22.6406ZM8.49636 38.983C11.0054 37.385 13.8047 36.2971 16.7344 35.7813V47.25H3.9375V41.8841L8.49636 38.983ZM3.9375 49.2188H24.6094C24.7966 49.2188 24.9799 49.1654 25.1379 49.0648L30.1526 45.8737C32.6617 44.2757 35.461 43.1877 38.3906 42.6719V59.0625H3.9375V49.2188ZM59.0625 59.0625H47.25V42.8681C49.8244 43.4401 52.2792 44.4572 54.5036 45.8737L59.0625 48.7748V59.0625Z" fill="#7A9DD1"/>
<path d="M50.2031 23.625H55.125V25.5938H50.2031V23.625Z" fill="#7A9DD1"/>
<path d="M39.375 23.625H48.2344V25.5938H39.375V23.625Z" fill="#7A9DD1"/>
<path d="M33.4688 23.625H37.4062V25.5938H33.4688V23.625Z" fill="#7A9DD1"/>
<path d="M42.3281 29.5312H55.125V31.5H42.3281V29.5312Z" fill="#7A9DD1"/>
<path d="M33.4688 29.5312H40.3594V31.5H33.4688V29.5312Z" fill="#7A9DD1"/>
<path d="M46.2656 35.4375H55.125V37.4062H46.2656V35.4375Z" fill="#7A9DD1"/>
<path d="M37.4062 35.4375H44.2969V37.4062H37.4062V35.4375Z" fill="#7A9DD1"/>
<path d="M28.5469 7.875H30.5156V9.84375H28.5469V7.875Z" fill="#7A9DD1"/>
<path d="M32.4844 7.875H42.3281V9.84375H32.4844V7.875Z" fill="#7A9DD1"/>
<path d="M28.5469 12.7969H36.4219V14.7656H28.5469V12.7969Z" fill="#7A9DD1"/>
<path d="M38.3906 12.7969H42.3281V14.7656H38.3906V12.7969Z" fill="#7A9DD1"/>
</svg>
