<svg width="60" height="60" viewBox="0 0 60 60" fill="none" xmlns="http://www.w3.org/2000/svg">
<path d="M53.2126 20.9532C54.742 20.0105 55.9983 18.6843 56.857 17.1061C57.7156 15.528 58.1468 13.7528 58.1077 11.9566C58.0685 10.1605 57.5605 8.40573 56.634 6.86649C55.7074 5.32724 54.3946 4.05697 52.8256 3.18169C51.2566 2.3064 49.4861 1.85651 47.6896 1.87664C45.8931 1.89678 44.1331 2.38623 42.5842 3.29646C41.0352 4.20669 39.7512 5.50606 38.8593 7.06569C37.9675 8.62532 37.499 10.391 37.5001 12.1876C37.4953 13.9081 37.9276 15.6017 38.7564 17.1095L33.7501 22.1157L20.3532 8.70947C20.1762 8.53383 19.937 8.43527 19.6876 8.43527C19.4382 8.43527 19.199 8.53383 19.022 8.70947L14.5313 13.2095L2.54072 1.20947L1.20947 2.54072L13.8657 15.197C14.0427 15.3726 14.282 15.4712 14.5313 15.4712C14.7807 15.4712 15.02 15.3726 15.197 15.197L19.6876 10.697L33.0845 24.1032C33.2622 24.2775 33.5012 24.3752 33.7501 24.3752C33.999 24.3752 34.238 24.2775 34.4157 24.1032L39.8157 18.6938C40.7823 19.8824 42.0015 20.8408 43.3848 21.4992C44.768 22.1576 46.2806 22.4995 47.8126 22.5001C49.053 22.4981 50.2826 22.2693 51.4407 21.8251L57.4595 27.8532L58.7907 26.522L53.2126 20.9532ZM47.8126 20.6251C46.1438 20.6251 44.5125 20.1302 43.125 19.2031C41.7374 18.276 40.656 16.9582 40.0174 15.4165C39.3788 13.8747 39.2117 12.1782 39.5372 10.5415C39.8628 8.90481 40.6664 7.40139 41.8464 6.22138C43.0264 5.04138 44.5298 4.23779 46.1665 3.91222C47.8032 3.58666 49.4997 3.75375 51.0415 4.39236C52.5832 5.03098 53.901 6.11243 54.8281 7.49997C55.7553 8.88751 56.2501 10.5188 56.2501 12.1876C56.2466 14.4243 55.3566 16.5684 53.775 18.15C52.1934 19.7316 50.0493 20.6216 47.8126 20.6251Z" fill="#7A9DD1"/>
<path d="M46.875 18.75H48.75V16.875C49.2473 16.875 49.7242 16.6775 50.0758 16.3258C50.4275 15.9742 50.625 15.4973 50.625 15V13.125C50.625 12.6277 50.4275 12.1508 50.0758 11.7992C49.7242 11.4475 49.2473 11.25 48.75 11.25H46.875V9.375H50.625V7.5H48.75V5.625H46.875V7.5C46.3777 7.5 45.9008 7.69754 45.5492 8.04918C45.1975 8.40081 45 8.87772 45 9.375V11.25C45 11.7473 45.1975 12.2242 45.5492 12.5758C45.9008 12.9275 46.3777 13.125 46.875 13.125H48.75V15H45V16.875H46.875V18.75Z" fill="#7A9DD1"/>
<path d="M15.9375 42.1875H14.0625C13.3166 42.1875 12.6012 41.8912 12.0738 41.3637C11.5463 40.8363 11.25 40.1209 11.25 39.375C11.25 38.6291 11.5463 37.9137 12.0738 37.3863C12.6012 36.8588 13.3166 36.5625 14.0625 36.5625H19.6875V34.6875H15.9375V32.8125H14.0625V34.6875C12.8193 34.6875 11.627 35.1814 10.7479 36.0604C9.86886 36.9395 9.375 38.1318 9.375 39.375C9.375 40.6182 9.86886 41.8105 10.7479 42.6896C11.627 43.5686 12.8193 44.0625 14.0625 44.0625H15.9375C16.6834 44.0625 17.3988 44.3588 17.9262 44.8863C18.4537 45.4137 18.75 46.1291 18.75 46.875C18.75 47.6209 18.4537 48.3363 17.9262 48.8637C17.3988 49.3912 16.6834 49.6875 15.9375 49.6875H10.3125V51.5625H14.0625V53.4375H15.9375V51.5625C17.1807 51.5625 18.373 51.0686 19.2521 50.1896C20.1311 49.3105 20.625 48.1182 20.625 46.875C20.625 45.6318 20.1311 44.4395 19.2521 43.5604C18.373 42.6814 17.1807 42.1875 15.9375 42.1875Z" fill="#7A9DD1"/>
<path d="M58.125 47.8127C58.1228 47.0675 57.8257 46.3534 57.2988 45.8264C56.7718 45.2995 56.0577 45.0024 55.3125 45.0002H44.0625C43.3173 45.0024 42.6032 45.2995 42.0762 45.8264C41.5493 46.3534 41.2522 47.0675 41.25 47.8127C41.2482 47.1185 40.9874 46.4499 40.5188 45.9377C40.9874 45.4256 41.2482 44.757 41.25 44.0627V42.1877C41.2482 41.4935 40.9874 40.8249 40.5188 40.3127C40.9874 39.8006 41.2482 39.132 41.25 38.4377V36.5627C41.2478 35.8175 40.9507 35.1034 40.4238 34.5764C39.8968 34.0495 39.1827 33.7524 38.4375 33.7502H27.1875C26.7617 33.7516 26.3418 33.8503 25.96 34.0388C25.5781 34.2273 25.2444 34.5005 24.9844 34.8377C24.0191 33.1705 22.8334 31.6411 21.4594 30.2908C21.8246 29.9976 22.1099 29.617 22.2888 29.1842C22.4678 28.7514 22.5347 28.2804 22.4833 27.8149C22.4319 27.3494 22.2638 26.9044 21.9947 26.5211C21.7256 26.1378 21.3641 25.8286 20.9438 25.6221L22.4719 19.9315C22.5098 19.7817 22.5108 19.625 22.4749 19.4748C22.439 19.3246 22.3672 19.1853 22.2656 19.069C22.1631 18.9523 22.0331 18.863 21.8875 18.809C21.7418 18.755 21.5851 18.738 21.4313 18.7596L15 19.6783L8.56875 18.7596C8.41493 18.738 8.25815 18.755 8.11252 18.809C7.96688 18.863 7.83694 18.9523 7.73438 19.069C7.63283 19.1853 7.56103 19.3246 7.5251 19.4748C7.48918 19.625 7.49022 19.7817 7.52812 19.9315L9.05625 25.6221C8.63587 25.8286 8.27439 26.1378 8.00527 26.5211C7.73615 26.9044 7.56811 27.3494 7.5167 27.8149C7.46529 28.2804 7.53217 28.7514 7.71115 29.1842C7.89014 29.617 8.17543 29.9976 8.54062 30.2908C4.77187 33.8908 1.875 40.1346 1.875 45.0002V48.7502C1.875 53.8315 5.7375 58.1252 10.3125 58.1252H19.6875C21.4746 58.1069 23.2003 57.4709 24.5719 56.3252C24.7764 56.8534 25.1354 57.3077 25.6019 57.6288C26.0685 57.9499 26.6211 58.1229 27.1875 58.1252H38.4375C39.1827 58.123 39.8968 57.826 40.4238 57.299C40.9507 56.772 41.2478 56.0579 41.25 55.3127C41.2522 56.0579 41.5493 56.772 42.0762 57.299C42.6032 57.826 43.3173 58.123 44.0625 58.1252H55.3125C56.0577 58.123 56.7718 57.826 57.2988 57.299C57.8257 56.772 58.1228 56.0579 58.125 55.3127V53.4377C58.1232 52.7435 57.8624 52.0749 57.3938 51.5627C57.8624 51.0506 58.1232 50.382 58.125 49.6877V47.8127ZM14.8687 21.5533C14.956 21.5627 15.044 21.5627 15.1312 21.5533L20.2875 20.8127L19.0781 25.3127H10.9219L9.7125 20.8127L14.8687 21.5533ZM10.3125 27.1877H19.6875C19.9361 27.1877 20.1746 27.2865 20.3504 27.4623C20.5262 27.6381 20.625 27.8766 20.625 28.1252C20.625 28.3739 20.5262 28.6123 20.3504 28.7881C20.1746 28.9639 19.9361 29.0627 19.6875 29.0627H10.3125C10.0639 29.0627 9.8254 28.9639 9.64959 28.7881C9.47377 28.6123 9.375 28.3739 9.375 28.1252C9.375 27.8766 9.47377 27.6381 9.64959 27.4623C9.8254 27.2865 10.0639 27.1877 10.3125 27.1877ZM19.6875 56.2502H10.3125C6.81563 56.2502 3.75 52.744 3.75 48.7502V45.0002C3.75 40.3127 6.89062 33.9658 10.65 30.9377H19.35C23.1094 33.9658 26.25 40.3127 26.25 45.0002V48.7502C26.25 52.744 23.1844 56.2502 19.6875 56.2502ZM39.375 55.3127C39.375 55.5614 39.2762 55.7998 39.1004 55.9756C38.9246 56.1514 38.6861 56.2502 38.4375 56.2502H27.1875C26.9389 56.2502 26.7004 56.1514 26.5246 55.9756C26.3488 55.7998 26.25 55.5614 26.25 55.3127V54.5533C26.7081 53.9163 27.0889 53.2271 27.3844 52.5002H38.4375C38.6861 52.5002 38.9246 52.599 39.1004 52.7748C39.2762 52.9506 39.375 53.1891 39.375 53.4377V55.3127ZM39.375 49.6877C39.375 49.9364 39.2762 50.1748 39.1004 50.3506C38.9246 50.5264 38.6861 50.6252 38.4375 50.6252H27.9469C28.0632 50.0069 28.1228 49.3793 28.125 48.7502V46.8752H38.4375C38.6861 46.8752 38.9246 46.974 39.1004 47.1498C39.2762 47.3256 39.375 47.5641 39.375 47.8127V49.6877ZM39.375 44.0627C39.375 44.3114 39.2762 44.5498 39.1004 44.7256C38.9246 44.9014 38.6861 45.0002 38.4375 45.0002H28.125C28.11 43.7348 27.9432 42.4758 27.6281 41.2502H38.4375C38.6861 41.2502 38.9246 41.349 39.1004 41.5248C39.2762 41.7006 39.375 41.9391 39.375 42.1877V44.0627ZM39.375 38.4377C39.375 38.6864 39.2762 38.9248 39.1004 39.1006C38.9246 39.2764 38.6861 39.3752 38.4375 39.3752H27.1875C27.149 39.3703 27.1113 39.3608 27.075 39.3471C26.8312 38.6533 26.5594 37.9596 26.25 37.2658V36.5627C26.25 36.3141 26.3488 36.0756 26.5246 35.8998C26.7004 35.724 26.9389 35.6252 27.1875 35.6252H38.4375C38.6861 35.6252 38.9246 35.724 39.1004 35.8998C39.2762 36.0756 39.375 36.3141 39.375 36.5627V38.4377ZM41.25 53.4377C41.2482 52.7435 40.9874 52.0749 40.5188 51.5627C40.9874 51.0506 41.2482 50.382 41.25 49.6877C41.2518 50.382 41.5126 51.0506 41.9812 51.5627C41.5126 52.0749 41.2518 52.7435 41.25 53.4377ZM56.25 55.3127C56.25 55.5614 56.1512 55.7998 55.9754 55.9756C55.7996 56.1514 55.5611 56.2502 55.3125 56.2502H44.0625C43.8139 56.2502 43.5754 56.1514 43.3996 55.9756C43.2238 55.7998 43.125 55.5614 43.125 55.3127V53.4377C43.125 53.1891 43.2238 52.9506 43.3996 52.7748C43.5754 52.599 43.8139 52.5002 44.0625 52.5002H55.3125C55.5611 52.5002 55.7996 52.599 55.9754 52.7748C56.1512 52.9506 56.25 53.1891 56.25 53.4377V55.3127ZM56.25 49.6877C56.25 49.9364 56.1512 50.1748 55.9754 50.3506C55.7996 50.5264 55.5611 50.6252 55.3125 50.6252H44.0625C43.8139 50.6252 43.5754 50.5264 43.3996 50.3506C43.2238 50.1748 43.125 49.9364 43.125 49.6877V47.8127C43.125 47.5641 43.2238 47.3256 43.3996 47.1498C43.5754 46.974 43.8139 46.8752 44.0625 46.8752H55.3125C55.5611 46.8752 55.7996 46.974 55.9754 47.1498C56.1512 47.3256 56.25 47.5641 56.25 47.8127V49.6877Z" fill="#7A9DD1"/>
</svg>
