<svg width="150" height="150" viewBox="0 0 150 150" fill="none" xmlns="http://www.w3.org/2000/svg">
<circle cx="75" cy="75" r="74.5" fill="#0B3068" stroke="#7A9DD1"/>
<path d="M75.8355 73.9284C75.7171 73.9028 75.5956 73.8982 75.4757 73.9161C74.2736 73.7762 73.3669 72.7592 73.3648 71.5495C73.3648 70.9697 72.8948 70.4997 72.315 70.4997C71.7353 70.4997 71.2652 70.9697 71.2652 71.5495C71.2683 73.5696 72.6195 75.3391 74.5674 75.8737V76.9235C74.5674 77.5032 75.0374 77.9733 75.6171 77.9733C76.1969 77.9733 76.6669 77.5032 76.6669 76.9235V75.9373C78.9151 75.4667 80.4432 73.3728 80.2069 71.0882C79.9701 68.8035 78.0453 67.0674 75.7484 67.0669C74.432 67.0669 73.3648 65.9997 73.3648 64.6833C73.3648 63.367 74.432 62.2998 75.7484 62.2998C77.0647 62.2998 78.1319 63.367 78.1319 64.6833C78.1319 65.2631 78.6019 65.7331 79.1817 65.7331C79.7614 65.7331 80.2315 65.2631 80.2315 64.6833C80.2284 62.5622 78.7424 60.7328 76.6669 60.295V59.3396C76.6669 58.7598 76.1969 58.2898 75.6171 58.2898C75.0374 58.2898 74.5674 58.7598 74.5674 59.3396V60.3591C72.4011 60.9507 71.0069 63.0538 71.3052 65.2795C71.6036 67.5051 73.5027 69.1664 75.7484 69.1659C77.0473 69.1659 78.1068 70.206 78.1304 71.5044C78.1545 72.8028 77.1334 73.8813 75.8355 73.9284Z" fill="white"/>
<path d="M60.5254 68.197C60.5254 76.6045 67.3408 83.4199 75.7483 83.4199C84.1558 83.4199 90.9712 76.6045 90.9712 68.197C90.9712 59.7895 84.1558 52.9741 75.7483 52.9741C67.3449 52.9833 60.5351 59.7936 60.5254 68.197ZM75.7483 55.0737C82.9963 55.0737 88.8716 60.949 88.8716 68.197C88.8716 75.4451 82.9963 81.3204 75.7483 81.3204C68.5003 81.3204 62.625 75.4451 62.625 68.197C62.6332 60.9526 68.5039 55.0819 75.7483 55.0737Z" fill="white"/>
<path d="M96.1464 86.0081L87.9229 89.8935C86.7875 87.7816 84.6095 86.4376 82.2126 86.37L74.6212 86.1613C73.4192 86.127 72.2397 85.8225 71.1709 85.2704L70.3985 84.8701C66.4433 82.8085 61.729 82.8136 57.778 84.8834L57.8262 83.1335C57.8421 82.5537 57.3853 82.0709 56.8056 82.055L48.4811 81.8258C47.9014 81.81 47.419 82.2667 47.4032 82.8464L46.9003 101.114C46.8844 101.694 47.3411 102.177 47.9209 102.193L56.2453 102.422H56.274C56.843 102.422 57.3084 101.969 57.3238 101.401L57.3479 100.527L59.5105 99.3687C60.3594 98.912 61.3518 98.8033 62.279 99.0658L75.1932 102.69C75.2158 102.697 75.2383 102.702 75.2614 102.707C76.1948 102.903 77.1462 103 78.0996 103C80.1192 103.001 82.1152 102.566 83.9508 101.723C83.9959 101.703 84.0395 101.678 84.081 101.651L102.805 89.5398C103.272 89.2379 103.423 88.6254 103.149 88.1415C101.759 85.6749 98.676 84.7353 96.1464 86.0081ZM49.0281 100.123L49.473 83.9536L55.6984 84.1248L55.2535 100.294L49.0281 100.123ZM83.0051 99.848C80.7246 100.877 78.1775 101.161 75.7263 100.66L62.847 97.0452C61.3974 96.6356 59.8458 96.8053 58.5197 97.5183L57.4146 98.1103L57.7103 87.3598C61.2123 85.0306 65.7036 84.7912 69.4333 86.7344L70.2057 87.1347C71.5559 87.8319 73.045 88.2163 74.5638 88.2604L82.1557 88.469C84.2881 88.5305 86.0991 90.0488 86.5317 92.1381L75.2235 91.826C74.6437 91.8101 74.1614 92.2673 74.145 92.8465C74.1291 93.4263 74.5863 93.9091 75.1655 93.925L87.6451 94.2685H87.6743C88.2427 94.2679 88.7077 93.8153 88.723 93.2474C88.7359 92.7912 88.702 92.3345 88.6215 91.8854L97.0562 87.9C97.0644 87.8965 97.0726 87.8923 97.0808 87.8882C98.2772 87.2829 99.7237 87.4854 100.708 88.3962L83.0051 99.848Z" fill="white"/>
<path d="M76.7983 50.0227V40.0498C76.7983 39.47 76.3283 39 75.7485 39C75.1688 39 74.6987 39.47 74.6987 40.0498V50.0227C74.6987 50.6025 75.1688 51.0725 75.7485 51.0725C76.3283 51.0725 76.7983 50.6025 76.7983 50.0227Z" fill="white"/>
<path d="M84.6713 50.0228V45.2988C84.6713 44.7191 84.2013 44.249 83.6216 44.249C83.0418 44.249 82.5718 44.7191 82.5718 45.2988V50.0228C82.5718 50.6026 83.0418 51.0726 83.6216 51.0726C84.2013 51.0726 84.6713 50.6026 84.6713 50.0228Z" fill="white"/>
<path d="M68.9248 50.0228V45.2988C68.9248 44.7191 68.4547 44.249 67.875 44.249C67.2952 44.249 66.8252 44.7191 66.8252 45.2988V50.0228C66.8252 50.6026 67.2952 51.0726 67.875 51.0726C68.4547 51.0726 68.9248 50.6026 68.9248 50.0228Z" fill="white"/>
</svg>
