<svg width="56" height="56" viewBox="0 0 56 56" fill="none" xmlns="http://www.w3.org/2000/svg">
<path d="M53.4844 14.7669H44.7694L43.8231 10.1351C43.4191 8.18665 42.3573 6.4364 40.8158 5.17808C39.2743 3.91975 37.3469 3.22993 35.357 3.22437H20.643C18.6529 3.23001 16.7253 3.92009 15.1837 5.17876C13.6422 6.43743 12.5805 8.18808 12.1769 10.1369L11.2306 14.7669H2.51562C1.84892 14.7677 1.20973 15.0329 0.738168 15.5042C0.266609 15.9755 0.00115759 16.6145 0 17.2812L0 50.26C0.000694884 50.927 0.265956 51.5664 0.737577 52.038C1.2092 52.5097 1.84865 52.7749 2.51562 52.7756H53.4844C54.1513 52.7749 54.7908 52.5097 55.2624 52.038C55.734 51.5664 55.9993 50.927 56 50.26V17.2812C55.9988 16.6145 55.7334 15.9755 55.2618 15.5042C54.7903 15.0329 54.1511 14.7677 53.4844 14.7669ZM13.6776 10.4418C14.0095 8.83839 14.883 7.39799 16.1513 6.36237C17.4196 5.32675 19.0056 4.75896 20.643 4.7543H35.357C36.9944 4.75896 38.5804 5.32675 39.8487 6.36237C41.117 7.39799 41.9905 8.83839 42.3224 10.4418L43.2066 14.7674H41.1972L40.3939 10.836C40.1538 9.67655 39.5222 8.635 38.605 7.88617C37.6879 7.13734 36.541 6.72681 35.357 6.72349H20.643C19.459 6.72681 18.3121 7.13734 17.395 7.88617C16.4778 8.635 15.8462 9.67655 15.6061 10.836L14.8028 14.7674H12.7934L13.6776 10.4418ZM39.634 14.7669H16.366L17.1062 11.1422C17.2748 10.3282 17.7182 9.59688 18.3621 9.0711C19.006 8.54531 19.8113 8.25706 20.6426 8.25474H35.357C36.1883 8.25706 36.9935 8.54531 37.6374 9.0711C38.2814 9.59688 38.7248 10.3282 38.8933 11.1422L39.634 14.7669ZM1.53125 17.2812C1.5316 17.0203 1.63542 16.7701 1.81995 16.5856C2.00448 16.401 2.25466 16.2972 2.51562 16.2969H53.4844C53.7453 16.2972 53.9955 16.401 54.18 16.5856C54.3646 16.7701 54.4684 17.0203 54.4688 17.2812V25.725C54.4665 27.6098 53.7168 29.4169 52.384 30.7496C51.0512 32.0824 49.2442 32.8322 47.3594 32.8344H8.64062C6.75578 32.8322 4.94876 32.0824 3.61597 30.7496C2.28318 29.4169 1.53345 27.6098 1.53125 25.725V17.2812ZM38.8552 34.3656H42.9021V38.8281C42.902 38.9731 42.8444 39.1121 42.7418 39.2147C42.6393 39.3172 42.5003 39.3749 42.3552 39.375H39.4021C39.2572 39.3748 39.1182 39.3171 39.0157 39.2146C38.9132 39.112 38.8555 38.9731 38.8552 38.8281V34.3656ZM13.0974 34.3656H17.1443V38.8281C17.1442 38.9731 17.0865 39.1121 16.984 39.2147C16.8815 39.3172 16.7424 39.3749 16.5974 39.375H13.6443C13.4993 39.3748 13.3604 39.3171 13.2579 39.2146C13.1554 39.112 13.0977 38.9731 13.0974 38.8281V34.3656ZM54.4688 50.26C54.4684 50.521 54.3646 50.7711 54.18 50.9557C53.9955 51.1402 53.7453 51.244 53.4844 51.2444H2.51562C2.25466 51.244 2.00448 51.1402 1.81995 50.9557C1.63542 50.7711 1.5316 50.521 1.53125 50.26V30.625C2.3244 31.778 3.38592 32.7209 4.6244 33.3725C5.86287 34.0241 7.24118 34.365 8.64062 34.3656H11.5662V38.8281C11.5669 39.3791 11.786 39.9072 12.1756 40.2968C12.5652 40.6864 13.0934 40.9055 13.6443 40.9062H16.5974C17.1484 40.9057 17.6767 40.6865 18.0663 40.2969C18.4559 39.9073 18.675 39.3791 18.6756 38.8281V34.3656H37.324V38.8281C37.3247 39.3791 37.5439 39.9072 37.9334 40.2968C38.323 40.6864 38.8512 40.9055 39.4021 40.9062H42.3552C42.9062 40.9057 43.4345 40.6865 43.8241 40.2969C44.2137 39.9073 44.4328 39.3791 44.4334 38.8281V34.3656H47.3594C48.7588 34.365 50.1371 34.0241 51.3756 33.3725C52.6141 32.7209 53.6756 31.778 54.4688 30.625V50.26Z" fill="#7A9DD1"/>
</svg>
