<svg width="66" height="28" viewBox="0 0 66 28" fill="none" xmlns="http://www.w3.org/2000/svg">
<path d="M38.6128 10.7217H34.2127V12.9222H38.6128V10.7217Z" fill="#7A9DD1"/>
<path d="M1.05423 7.43269L8.52683 6.36556C9.88939 5.5285 11.3034 4.77919 12.7613 4.12163C17.576 1.94081 22.8015 0.815492 28.0875 0.821312H29.3856C35.6236 0.825788 41.7619 2.39112 47.2408 5.37452L51.012 7.43179C55.4264 7.48148 59.7558 8.65559 63.5911 10.8418C65.1497 11.7357 66.1121 13.3941 66.1147 15.1904V21.7226C66.1147 22.3304 65.6224 22.8228 65.0145 22.8228H61.3207C60.1193 26.2503 56.3669 28.0551 52.9394 26.8537C51.0527 26.1925 49.5697 24.7091 48.9086 22.8228H19.5177C18.3163 26.2503 14.5639 28.0551 11.1365 26.8537C9.25019 26.1925 7.76677 24.7091 7.10563 22.8228H6.71083C6.57072 22.8228 6.43196 22.7964 6.3017 22.7445L2.73863 21.3148C1.14689 20.6845 0.104378 19.1438 0.110199 17.4326V8.52175C0.110199 7.97476 0.512611 7.51058 1.05423 7.43269ZM50.8029 21.5028C51.2895 23.8837 53.614 25.4195 55.9949 24.9329C58.3763 24.4464 59.912 22.1219 59.4255 19.7405C58.9385 17.3596 56.614 15.8238 54.2331 16.3104C52.1843 16.7289 50.7134 18.5315 50.7139 20.6228C50.7139 20.9182 50.7439 21.2132 50.8029 21.5028ZM30.9124 20.6228H48.5138C48.5138 16.9773 51.4686 14.0221 55.114 14.0221C58.7594 14.0221 61.7146 16.9773 61.7146 20.6228H63.9147V15.1904C63.9133 14.1828 63.3735 13.2522 62.4989 12.7518C58.9089 10.7021 54.8472 9.62335 50.7139 9.62201H30.9124V20.6228ZM30.9124 7.42195H46.3992L46.1871 7.30601C41.4839 4.75009 36.2597 3.30114 30.9124 3.06972V7.42195ZM28.7123 3.02137H28.0897C23.6565 3.01645 19.2635 3.85798 15.1458 5.5012L17.0666 7.42195H28.7123V3.02137ZM8.99997 21.5028C9.48653 23.8837 11.811 25.4195 14.1924 24.9329C16.5733 24.4464 18.1091 22.1219 17.6225 19.7405C17.1359 17.3596 14.811 15.8238 12.4301 16.3104C10.3813 16.7289 8.91045 18.5315 8.91089 20.6228C8.91089 20.9182 8.94088 21.2132 8.99997 21.5028ZM2.31026 10.7218H5.61058V12.9223H2.31026V17.4326C2.30757 18.2432 2.80175 18.9728 3.55554 19.2705L6.71083 20.5377C6.71083 20.4366 6.72381 20.3363 6.73053 20.2351C6.73724 20.134 6.73948 20.0153 6.75022 19.9052C6.76141 19.7951 6.78334 19.685 6.8008 19.5753C6.81871 19.4652 6.83169 19.3551 6.85362 19.2553C6.87555 19.155 6.90778 19.044 6.93643 18.9393C6.96508 18.835 6.98701 18.7293 7.02014 18.6268C7.05281 18.5248 7.09265 18.4267 7.1298 18.3265C7.1674 18.2266 7.20142 18.1232 7.23992 18.0239C7.27842 17.925 7.33034 17.835 7.37644 17.7414C7.42255 17.6479 7.46776 17.5454 7.51923 17.4509C7.57116 17.3565 7.62935 17.2759 7.67904 17.1882C7.72828 17.1 7.7887 16.9997 7.85137 16.9097C7.91449 16.8193 7.97268 16.7482 8.0331 16.6667C8.09353 16.5852 8.16202 16.4894 8.2323 16.4048C8.30257 16.3202 8.36837 16.254 8.43686 16.1846C8.5049 16.1157 8.58099 16.0221 8.65664 15.9451C8.73274 15.8681 8.80749 15.8073 8.88314 15.7392C8.95924 15.6712 9.0407 15.5906 9.12441 15.519C9.20766 15.4478 9.29271 15.3928 9.37597 15.3301C9.45967 15.2674 9.54338 15.2003 9.63111 15.1416C9.7193 15.0834 9.81822 15.032 9.91267 14.9702C10.0076 14.9084 10.0846 14.8601 10.1736 14.8131C10.2627 14.7656 10.3737 14.7159 10.4749 14.6676C10.576 14.6193 10.6553 14.5763 10.7488 14.5369C10.8424 14.4971 10.9691 14.4554 11.0787 14.416C11.1888 14.3762 11.2605 14.3453 11.354 14.3158C11.4793 14.2773 11.6078 14.2495 11.7358 14.2177C11.8195 14.198 11.8997 14.1716 11.9843 14.1542C12.1194 14.1264 12.2582 14.1112 12.3956 14.0911C12.4771 14.0803 12.555 14.0624 12.6365 14.0548C12.8567 14.0329 13.0765 14.0208 13.3074 14.0208C16.9515 14.0244 19.9045 16.9773 19.9081 20.6214H28.7119V9.62156H16.6113C16.3195 9.62156 16.0397 9.50563 15.8338 9.29927L12.9811 6.44658C11.7837 7.0164 10.6195 7.65337 9.49369 8.35434C9.36388 8.43536 9.21886 8.48863 9.06711 8.51056L2.31026 9.47519V10.7218Z" fill="#7A9DD1"/>
</svg>
