<svg width="32" height="33" viewBox="0 0 32 33" fill="none" xmlns="http://www.w3.org/2000/svg">
<ellipse cx="15.9197" cy="16.0372" rx="15.5198" ry="16.0372" fill="#0D2D5E"/>
<path d="M9.19904 15.6419C13.669 13.6755 19.4535 11.2779 20.252 10.9461C22.3465 10.0776 22.9892 10.244 22.6687 12.1674C22.4386 13.5499 21.7746 18.1269 21.2453 20.9758C20.9313 22.6652 20.2267 22.8654 19.1188 22.1345C18.586 21.7828 15.8969 20.0045 15.3132 19.5869C14.7805 19.2064 14.0457 18.7486 14.9672 17.847C15.2951 17.5259 17.4447 15.4733 19.1195 13.8757C19.339 13.6659 19.0633 13.3212 18.8101 13.4894C16.5527 14.9864 13.4229 17.0642 13.0245 17.3349C12.4228 17.7435 11.8448 17.931 10.8073 17.6329C10.0235 17.4078 9.25772 17.1393 8.95968 17.0368C7.81195 16.6428 8.08439 16.1324 9.19904 15.6419Z" fill="white"/>
</svg>
