<svg width="32" height="33" viewBox="0 0 32 33" fill="none" xmlns="http://www.w3.org/2000/svg">
<ellipse cx="16.3196" cy="16.0372" rx="15.5198" ry="16.0372" fill="#0D2D5E"/>
<path d="M13.6307 23.6551C13.5683 23.6551 13.5052 23.6438 13.4444 23.6208C13.242 23.5436 13.1085 23.3496 13.1085 23.1329V21.5337C12.3577 21.309 11.6512 20.9886 11.195 20.5793C10.289 19.6655 9.87744 18.3855 9.87744 16.5299V15.4855C9.87744 13.6299 10.289 12.3499 11.1727 11.4578C12.6953 10.0879 15.4232 10.0879 16.3195 10.0879C17.2157 10.0879 19.9433 10.0879 21.4436 11.4368C22.3492 12.3496 22.7608 13.6293 22.7608 15.4855L22.7612 16.5299C22.7612 18.3855 22.3496 19.6655 21.4659 20.5576C19.9433 21.9272 17.2154 21.9272 16.3191 21.9272C16.1048 21.9272 15.8681 21.9272 15.4649 21.9069C15.0426 22.3792 14.0203 23.4808 14.0203 23.4808C13.9191 23.594 13.7765 23.6551 13.6307 23.6551ZM19.0519 18.4472C18.6927 18.1446 18.5268 18.0531 18.0308 17.7553C17.8242 17.6315 17.5093 17.5244 17.3441 17.5244C17.2313 17.5244 17.0961 17.6108 17.0133 17.6935C16.8012 17.9057 16.7317 18.1711 16.3599 18.1711C15.9961 18.1711 15.3608 17.8009 14.9049 17.3224C14.4264 16.8665 14.0562 16.2311 14.0562 15.8674C14.0562 15.4956 14.3168 15.4212 14.5289 15.2088C14.6116 15.1263 14.7028 14.9912 14.7028 14.8783C14.7028 14.7131 14.5958 14.403 14.472 14.1964C14.1742 13.7001 14.083 13.5342 13.78 13.1753C13.6775 13.0538 13.5608 12.9982 13.4386 12.9978C13.232 12.9975 12.9607 13.1 12.7771 13.2368C12.5009 13.4427 12.2122 13.7231 12.1349 14.0723C12.1246 14.1198 12.1184 14.1676 12.1165 14.2155C12.1016 14.5792 12.2445 14.9485 12.3988 15.2611C12.7619 15.998 13.2423 16.7113 13.7652 17.3482C13.9323 17.5519 14.1144 17.7414 14.3029 17.9244C14.4859 18.1126 14.6753 18.2946 14.879 18.4621C15.516 18.9849 16.2293 19.4654 16.9661 19.8285C17.2759 19.9811 17.6406 20.1214 18.0008 20.1111C18.0522 20.1095 18.1036 20.1036 18.155 20.0923C18.5042 20.0154 18.7845 19.7263 18.9905 19.4502C19.1273 19.2665 19.2298 18.9956 19.2294 18.7887C19.2291 18.6664 19.1735 18.5497 19.0519 18.4472ZM20.1994 15.9078V15.5845C20.1994 13.6235 18.6038 12.0278 16.6428 12.0278C16.4643 12.0278 16.3195 12.1727 16.3195 12.3512C16.3195 12.5296 16.4643 12.6745 16.6428 12.6745C18.2472 12.6745 19.5528 13.9801 19.5528 15.5845V15.9078C19.5528 16.0863 19.6976 16.2311 19.8761 16.2311C20.0546 16.2311 20.1994 16.0863 20.1994 15.9078ZM17.972 15.5738C18.1447 15.5285 18.2481 15.3523 18.2032 15.1793C18.0554 14.6129 17.6125 14.1702 17.0473 14.0238C16.8737 13.9795 16.6978 14.0832 16.6531 14.2559C16.6085 14.4289 16.7123 14.6051 16.8853 14.65C17.2238 14.7373 17.4889 15.0028 17.5775 15.3426C17.6154 15.4881 17.7466 15.5845 17.8902 15.5845C17.917 15.5845 17.9445 15.5809 17.972 15.5738ZM19.2294 15.5845C19.2294 14.2097 18.154 13.0758 16.7809 13.0033C16.6053 12.9936 16.4504 13.1307 16.441 13.3092C16.4317 13.4873 16.5684 13.6396 16.7469 13.649C17.7764 13.7033 18.5828 14.5537 18.5828 15.5845C18.5828 15.7629 18.7276 15.9078 18.9061 15.9078C19.0846 15.9078 19.2294 15.7629 19.2294 15.5845Z" fill="white"/>
</svg>
