<svg width="32" height="33" viewBox="0 0 32 33" fill="none" xmlns="http://www.w3.org/2000/svg">
<ellipse cx="15.5198" cy="16.0372" rx="15.5198" ry="16.0372" fill="#0D2D5E"/>
<path d="M20.5073 11.5702C19.247 10.3092 17.5712 9.6143 15.7857 9.61363C12.1065 9.61363 9.11223 12.6066 9.11089 16.2858C9.11022 17.4618 9.4176 18.6098 10.0016 19.6215L9.09619 22.9779L12.593 22.1514C13.5679 22.6833 14.6651 22.9632 15.7823 22.9639H15.785C19.4635 22.9639 22.4578 19.9703 22.4598 16.2918C22.4612 14.5083 21.7675 12.8318 20.5073 11.5702ZM19.0513 18.6706C18.9123 19.0602 18.2314 19.4357 17.9253 19.4631C17.6193 19.4912 17.3326 19.6014 15.924 19.0462C14.2288 18.3779 13.1583 16.6399 13.0754 16.529C12.9919 16.4174 12.3945 15.6249 12.3945 14.8043C12.3945 13.9838 12.8255 13.5802 12.9785 13.4138C13.1315 13.2467 13.312 13.2053 13.4236 13.2053C13.5345 13.2053 13.6461 13.2053 13.743 13.2093C13.8619 13.214 13.9935 13.22 14.1185 13.4973C14.2668 13.8274 14.5909 14.652 14.6324 14.7355C14.6738 14.819 14.7018 14.9166 14.6464 15.0275C14.5909 15.1384 14.5629 15.2079 14.48 15.3055C14.3965 15.403 14.3049 15.5227 14.2301 15.5975C14.1466 15.6804 14.0597 15.7712 14.1566 15.9376C14.2541 16.1047 14.5882 16.6506 15.0841 17.0923C15.7215 17.6603 16.2581 17.836 16.4252 17.9202C16.5922 18.0037 16.6891 17.9897 16.7867 17.8781C16.8842 17.7672 17.2036 17.3917 17.3146 17.2246C17.4255 17.0575 17.5371 17.0856 17.6901 17.1411C17.8431 17.1965 18.663 17.6001 18.8294 17.6837C18.9965 17.7672 19.1074 17.8086 19.1488 17.8781C19.1902 17.9469 19.1902 18.281 19.0513 18.6706Z" fill="white"/>
</svg>
