<svg width="27" height="27" viewBox="0 0 27 27" fill="none" xmlns="http://www.w3.org/2000/svg">
<path d="M13.5001 0C8.03249 0 3.6001 4.43239 3.6001 9.9C3.6001 15.2199 12.763 26.365 13.1531 26.8366C13.2386 26.9401 13.3659 27 13.5001 27C13.6343 27 13.7615 26.9401 13.847 26.8366C14.2372 26.365 23.4001 15.2199 23.4001 9.9C23.4001 4.43239 18.9677 0 13.5001 0ZM13.5001 25.8349C11.8067 23.7213 4.5001 14.3424 4.5001 9.9C4.50578 4.93178 8.53193 0.905681 13.5001 0.9C18.4683 0.905681 22.4944 4.93178 22.5001 9.9C22.5001 14.3415 15.1934 23.7208 13.5001 25.8349Z" fill="white"/>
<path d="M19.6245 8.1935L13.7745 3.6935C13.6126 3.56896 13.3873 3.56896 13.2255 3.6935L7.37547 8.1935C7.17865 8.34521 7.14209 8.62781 7.2938 8.82463C7.37896 8.9351 7.51047 8.99984 7.64997 8.9999H8.99997V13.9499C8.99997 14.1984 9.20146 14.3999 9.44997 14.3999H17.55C17.7985 14.3999 18 14.1984 18 13.9499V8.9999H19.35C19.5985 8.99979 19.7999 8.79819 19.7998 8.54968C19.7997 8.41018 19.735 8.27866 19.6245 8.1935ZM14.4 13.4999H12.6V10.7999H14.4V13.4999ZM17.55 8.0999C17.3015 8.0999 17.1 8.30139 17.1 8.5499V13.4999H15.3V10.3499C15.3 10.1014 15.0985 9.8999 14.85 9.8999H12.15C11.9015 9.8999 11.7 10.1014 11.7 10.3499V13.4999H9.89997V8.5499C9.89997 8.30139 9.69849 8.0999 9.44997 8.0999H8.97297L13.5 4.6178L18.027 8.0999H17.55Z" fill="white"/>
</svg>
